<svg width="20" height="20" viewBox="0 0 20 20" version="1.1" xmlns="http://www.w3.org/2000/svg" xmlns:xlink="http://www.w3.org/1999/xlink">
<g id="Canvas" fill="none">
<g id="arrow-outline-right">
<g id="Vector">
<path d="M 20 10C 20 12.6522 18.9464 15.1957 17.0711 17.0711C 15.1957 18.9464 12.6522 20 10 20C 7.34784 20 4.8043 18.9464 2.92893 17.0711C 1.05357 15.1957 0 12.6522 0 10C 0 7.34784 1.05357 4.8043 2.92893 2.92893C 4.8043 1.05357 7.34784 0 10 0C 12.6522 0 15.1957 1.05357 17.0711 2.92893C 18.9464 4.8043 20 7.34784 20 10ZM 18 10C 18 7.87827 17.1571 5.84344 15.6569 4.34315C 14.1566 2.84285 12.1217 2 10 2C 7.87827 2 5.84344 2.84285 4.34315 4.34315C 2.84285 5.84344 2 7.87827 2 10C 2 12.1217 2.84285 14.1566 4.34315 15.6569C 5.84344 17.1571 7.87827 18 10 18C 12.1217 18 14.1566 17.1571 15.6569 15.6569C 17.1571 14.1566 18 12.1217 18 10ZM 10 12L 5 12L 5 8L 10 8L 10 5L 15 10L 10 15L 10 12Z" fill="#24B47E"/>
</g>
</g>
</g>
</svg>

