<svg width="18" height="20" viewBox="0 0 18 20" version="1.1" xmlns="http://www.w3.org/2000/svg" xmlns:xlink="http://www.w3.org/1999/xlink">
<title>calendar</title>
<desc>Created using Figma</desc>
<g id="Canvas" transform="translate(226 -175)">
<g id="calendar">
<g id="Vector">
<use xlink:href="#path0_fill" transform="translate(-226 175)" fill="#FFFFFF"/>
</g>
</g>
</g>
<defs>
<path id="path0_fill" d="M 0 4C 0 2.9 0.9 2 2 2L 16 2C 16.5304 2 17.0391 2.21071 17.4142 2.58579C 17.7893 2.96086 18 3.46957 18 4L 18 18C 18 18.5304 17.7893 19.0391 17.4142 19.4142C 17.0391 19.7893 16.5304 20 16 20L 2 20C 1.46957 20 0.960859 19.7893 0.585786 19.4142C 0.210714 19.0391 2.22045e-16 18.5304 0 18L 0 4ZM 2 6L 2 18L 16 18L 16 6L 2 6ZM 4 0L 6 0L 6 2L 4 2L 4 0ZM 12 0L 14 0L 14 2L 12 2L 12 0ZM 4 9L 6 9L 6 11L 4 11L 4 9ZM 4 13L 6 13L 6 15L 4 15L 4 13ZM 8 9L 10 9L 10 11L 8 11L 8 9ZM 8 13L 10 13L 10 15L 8 15L 8 13ZM 12 9L 14 9L 14 11L 12 11L 12 9ZM 12 13L 14 13L 14 15L 12 15L 12 13Z"/>
</defs>
</svg>
