<svg width="20" height="20" viewBox="0 0 20 20" version="1.1" xmlns="http://www.w3.org/2000/svg" xmlns:xlink="http://www.w3.org/1999/xlink">
<title>checkmark-outline</title>
<desc>Created using Figma</desc>
<g id="Canvas" transform="translate(216 -7)">
<g id="checkmark-outline">
<g id="Vector">
<use xlink:href="#path0_fill" transform="translate(-216 7)" fill="#24B47E"/>
</g>
</g>
</g>
<defs>
<path id="path0_fill" d="M 3.05288 17.1929C 2.09778 16.2704 1.33596 15.167 0.811868 13.9469C 0.287778 12.7269 0.0119157 11.4147 0.000377564 10.0869C -0.0111606 8.7591 0.241856 7.44231 0.744665 6.21334C 1.24747 4.98438 1.99001 3.86786 2.92893 2.92893C 3.86786 1.99001 4.98438 1.24747 6.21334 0.744665C 7.44231 0.241856 8.7591 -0.0111606 10.0869 0.000377564C 11.4147 0.0119157 12.7269 0.287778 13.9469 0.811868C 15.167 1.33596 16.2704 2.09778 17.1929 3.05288C 19.0145 4.9389 20.0224 7.46493 19.9996 10.0869C 19.9768 12.7089 18.9251 15.217 17.0711 17.0711C 15.217 18.9251 12.7089 19.9768 10.0869 19.9996C 7.46493 20.0224 4.9389 19.0145 3.05288 17.1929ZM 15.7829 15.7829C 17.284 14.2818 18.1273 12.2458 18.1273 10.1229C 18.1273 7.99997 17.284 5.96401 15.7829 4.46288C 14.2818 2.96176 12.2458 2.11843 10.1229 2.11843C 7.99997 2.11843 5.96401 2.96176 4.46288 4.46288C 2.96176 5.96401 2.11843 7.99997 2.11843 10.1229C 2.11843 12.2458 2.96176 14.2818 4.46288 15.7829C 5.96401 17.284 7.99997 18.1273 10.1229 18.1273C 12.2458 18.1273 14.2818 17.284 15.7829 15.7829ZM 6.82288 9.41288L 9.12288 11.7229L 13.4229 7.42288L 14.8229 8.84288L 9.12288 14.5229L 5.42288 10.8229L 6.82288 9.40288L 6.82288 9.41288Z"/>
</defs>
</svg>
