<?xml version="1.0" encoding="utf-8"?>
<!-- Generator: Adobe Illustrator 19.0.0, SVG Export Plug-In . SVG Version: 6.00 Build 0)  -->
<svg version="1.1" xmlns="http://www.w3.org/2000/svg" xmlns:xlink="http://www.w3.org/1999/xlink" x="0px" y="0px"
	 viewBox="0 0 288 288" style="enable-background:new 0 0 288 288;" xml:space="preserve">
<style type="text/css">
	.st0{fill:#07639B;}
	.st1{fill:#BBA653;}
</style>
<g id="blue">
	<rect id="XMLID_2_" x="13.5" y="69.2" class="st0" width="48" height="204.3"/>
	<path id="XMLID_6_" class="st0" d="M274.5,213.8c0-20.7-9.2-39.5-24.7-50.2l-43.2-30.2c-3.6-2.5-4.6-4.4-4.7-7.3
		c0-4.2,4.6-8.8,12.5-8.8h53.7v-48h-53.7c-34,0-60.5,25.5-60.5,56.8c0,18.1,8.2,34.7,25.1,46.6l43.2,30.2c2,1.4,4.2,5.4,4.2,10.9
		c0,8.3-6.1,15-13.7,15v0.2h-76.9c-7.5,0-13.7-6.1-13.7-13.7v-96.9h29v-48h-29V11h-48v204.3c0,34,27.7,61.7,61.7,61.7H213v-0.2
		C246.9,276.7,274.5,248.4,274.5,213.8z"/>
</g>
<g id="yellow">
	<circle id="XMLID_3_" class="st1" cx="37.5" cy="36.2" r="24"/>
</g>
</svg>
