<svg width="608" height="588" viewBox="0 0 608 588" version="1.1" xmlns="http://www.w3.org/2000/svg" xmlns:xlink="http://www.w3.org/1999/xlink">
<title>laptop</title>
<desc>Created using Figma</desc>
<g id="Canvas" transform="translate(464 358)">
<g id="laptop">
<g id="Page 1">
<g id="Landing Page Copy">
<g id="Group 3">
<g id="Group 4">
<g id="Rectangle Copy 3">
<use xlink:href="#path0_fill" transform="translate(-464 -358)" fill="#CCD3E5"/>
</g>
<g id="Rectangle Copy 2">
<use xlink:href="#path1_fill" transform="matrix(0.48481 -0.87462 -0.87462 -0.48481 -25.5461 323.477)" fill="#CCD3E5"/>
</g>
<g id="Rectangle">
<use xlink:href="#path2_fill" transform="translate(-459.634 -355.433)" fill="#FDFDFF"/>
</g>
<g id="Rectangle 2">
<use xlink:href="#path3_fill" transform="translate(-441.968 -322.641)" fill="#FFFFFF"/>
</g>
<g id="Rectangle 2 Copy 2">
<use xlink:href="#path4_fill" transform="translate(-339.393 -214.177)" fill="#EAA137"/>
</g>
<g id="Rectangle 2 Copy 3">
<use xlink:href="#path5_fill" transform="translate(-325.277 -196.05)" fill="#26D2FF"/>
</g>
<g id="Rectangle Copy">
<use xlink:href="#path6_fill" transform="matrix(0.48481 -0.87462 -0.87462 -0.48481 -24.9253 313.754)" fill="#EDF2FF"/>
</g>
<g id="Group Copy">
<g id="Rectangle 4 Copy">
<use xlink:href="#path7_fill" transform="translate(-111.768 -73.8536)" fill="#BCC6E0"/>
</g>
<g id="Rectangle 4">
<use xlink:href="#path8_fill" transform="translate(-111.768 -75.8669)" fill="#FFFFFF"/>
</g>
</g>
<g id="Group">
<g id="Rectangle 4 Copy">
<use xlink:href="#path7_fill" transform="translate(-146 -53.7206)" fill="#BCC6E0"/>
</g>
<g id="Rectangle 4">
<use xlink:href="#path8_fill" transform="translate(-146 -55.7339)" fill="#FFFFFF"/>
</g>
</g>
<g id="Group 2">
<g id="Group">
<g id="Rectangle 4 Copy">
<use xlink:href="#path9_fill" transform="translate(-355.314 66.6248)" fill="#BCC6E0"/>
</g>
<g id="Rectangle 4">
<use xlink:href="#path10_fill" transform="translate(-355.314 64.6115)" fill="#FFFFFF"/>
</g>
</g>
<g id="Group Copy">
<g id="Rectangle 4 Copy">
<use xlink:href="#path9_fill" transform="translate(-321.082 46.4918)" fill="#BCC6E0"/>
</g>
<g id="Rectangle 4">
<use xlink:href="#path10_fill" transform="translate(-321.082 44.4785)" fill="#FFFFFF"/>
</g>
</g>
<g id="Group Copy 2">
<g id="Rectangle 4 Copy">
<use xlink:href="#path9_fill" transform="translate(-284.835 26.3587)" fill="#BCC6E0"/>
</g>
<g id="Rectangle 4">
<use xlink:href="#path10_fill" transform="translate(-284.835 24.3454)" fill="#FFFFFF"/>
</g>
</g>
<g id="Group">
<g id="Rectangle 4 Copy">
<use xlink:href="#path7_fill" transform="translate(-355.314 66.6248)" fill="#BCC6E0"/>
</g>
<g id="Rectangle 4">
<use xlink:href="#path8_fill" transform="translate(-355.314 64.6115)" fill="#FFFFFF"/>
</g>
</g>
<g id="Group Copy 2.1">
<g id="Rectangle 4 Copy">
<use xlink:href="#path7_fill" transform="translate(-284.835 26.3587)" fill="#BCC6E0"/>
</g>
<g id="Rectangle 4">
<use xlink:href="#path8_fill" transform="translate(-284.835 24.3454)" fill="#FFFFFF"/>
</g>
</g>
<g id="Group Copy">
<g id="Rectangle 4 Copy">
<use xlink:href="#path7_fill" transform="translate(-215.768 -13.8536)" fill="#BCC6E0"/>
</g>
<g id="Rectangle 4">
<use xlink:href="#path8_fill" transform="translate(-215.768 -15.8669)" fill="#FFFFFF"/>
</g>
</g>
<g id="Group">
<g id="Rectangle 4 Copy">
<use xlink:href="#path7_fill" transform="translate(-250 6.27942)" fill="#BCC6E0"/>
</g>
<g id="Rectangle 4">
<use xlink:href="#path8_fill" transform="translate(-250 4.26611)" fill="#FFFFFF"/>
</g>
</g>
<g id="Group Copy 2.2">
<g id="Rectangle 4 Copy">
<use xlink:href="#path7_fill" transform="translate(-179.521 -33.9867)" fill="#BCC6E0"/>
</g>
<g id="Rectangle 4">
<use xlink:href="#path8_fill" transform="translate(-179.521 -36)" fill="#FFFFFF"/>
</g>
</g>
<g id="Group Copy 22">
<g id="Rectangle 4 Copy">
<use xlink:href="#path9_fill" transform="translate(-277.753 107.878)" fill="#BCC6E0"/>
</g>
<g id="Rectangle 4">
<use xlink:href="#path10_fill" transform="translate(-277.753 105.864)" fill="#FFFFFF"/>
</g>
</g>
<g id="Group Copy 21">
<g id="Rectangle 4 Copy">
<use xlink:href="#path9_fill" transform="translate(-243.521 87.7446)" fill="#BCC6E0"/>
</g>
<g id="Rectangle 4">
<use xlink:href="#path10_fill" transform="translate(-243.521 85.7313)" fill="#FFFFFF"/>
</g>
</g>
<g id="Group Copy 21.1">
<g id="Rectangle 4 Copy">
<use xlink:href="#path7_fill" transform="translate(-207 66.0133)" fill="#BCC6E0"/>
</g>
<g id="Rectangle 4">
<use xlink:href="#path8_fill" transform="translate(-207 64)" fill="#FFFFFF"/>
</g>
</g>
<g id="Group Copy 21.2">
<g id="Rectangle 4 Copy">
<use xlink:href="#path7_fill" transform="translate(-169 46.0133)" fill="#BCC6E0"/>
</g>
<g id="Rectangle 4">
<use xlink:href="#path8_fill" transform="translate(-169 44)" fill="#FFFFFF"/>
</g>
</g>
<g id="Group Copy 21.3">
<g id="Rectangle 4 Copy">
<use xlink:href="#path7_fill" transform="translate(-134 26.0133)" fill="#BCC6E0"/>
</g>
<g id="Rectangle 4">
<use xlink:href="#path8_fill" transform="translate(-134 24)" fill="#FFFFFF"/>
</g>
</g>
<g id="Group Copy 21.4">
<g id="Rectangle 4 Copy">
<use xlink:href="#path7_fill" transform="translate(-101 6.01331)" fill="#BCC6E0"/>
</g>
<g id="Rectangle 4">
<use xlink:href="#path8_fill" transform="translate(-101 4)" fill="#FFFFFF"/>
</g>
</g>
<g id="Group Copy 21.5">
<g id="Rectangle 4 Copy">
<use xlink:href="#path7_fill" transform="translate(-68 -13.9867)" fill="#BCC6E0"/>
</g>
<g id="Rectangle 4">
<use xlink:href="#path8_fill" transform="translate(-68 -16)" fill="#FFFFFF"/>
</g>
</g>
<g id="Group Copy 21.6">
<g id="Rectangle 4 Copy">
<use xlink:href="#path7_fill" transform="translate(-35 -32.9867)" fill="#BCC6E0"/>
</g>
<g id="Rectangle 4">
<use xlink:href="#path8_fill" transform="translate(-35 -35)" fill="#FFFFFF"/>
</g>
</g>
<g id="Group Copy 24">
<g id="Rectangle 4 Copy">
<use xlink:href="#path9_fill" transform="translate(-250.603 137.091)" fill="#BCC6E0"/>
</g>
<g id="Rectangle 4">
<use xlink:href="#path10_fill" transform="translate(-250.603 135.077)" fill="#FFFFFF"/>
</g>
</g>
<g id="Group Copy 24.1">
<g id="Rectangle 4 Copy">
<use xlink:href="#path7_fill" transform="translate(-217 118.013)" fill="#BCC6E0"/>
</g>
<g id="Rectangle 4">
<use xlink:href="#path8_fill" transform="translate(-217 116)" fill="#FFFFFF"/>
</g>
</g>
<g id="Group Copy 24.5">
<g id="Rectangle 4 Copy">
<use xlink:href="#path7_fill" transform="translate(-185 98.0133)" fill="#BCC6E0"/>
</g>
<g id="Rectangle 4">
<use xlink:href="#path8_fill" transform="translate(-185 96)" fill="#FFFFFF"/>
</g>
</g>
<g id="Group Copy 24.3">
<g id="Rectangle 4 Copy">
<use xlink:href="#path7_fill" transform="translate(-152 79.0133)" fill="#BCC6E0"/>
</g>
<g id="Rectangle 4">
<use xlink:href="#path8_fill" transform="translate(-152 77)" fill="#FFFFFF"/>
</g>
</g>
<g id="Group Copy 24.4">
<g id="Rectangle 4 Copy">
<use xlink:href="#path7_fill" transform="translate(-118 59.0133)" fill="#BCC6E0"/>
</g>
<g id="Rectangle 4">
<use xlink:href="#path8_fill" transform="translate(-118 57)" fill="#FFFFFF"/>
</g>
</g>
<g id="Group Copy 24.6">
<g id="Rectangle 4 Copy">
<use xlink:href="#path7_fill" transform="translate(-83 39.0133)" fill="#BCC6E0"/>
</g>
<g id="Rectangle 4">
<use xlink:href="#path8_fill" transform="translate(-83 37)" fill="#FFFFFF"/>
</g>
</g>
<g id="Group Copy 24.7">
<g id="Rectangle 4 Copy">
<use xlink:href="#path7_fill" transform="translate(-50 20.0133)" fill="#BCC6E0"/>
</g>
<g id="Rectangle 4">
<use xlink:href="#path8_fill" transform="translate(-50 18)" fill="#FFFFFF"/>
</g>
</g>
<g id="Group Copy 24.8">
<g id="Rectangle 4 Copy">
<use xlink:href="#path7_fill" transform="translate(-17 1.01331)" fill="#BCC6E0"/>
</g>
<g id="Rectangle 4">
<use xlink:href="#path8_fill" transform="translate(-17 -1)" fill="#FFFFFF"/>
</g>
</g>
<g id="Group Copy 11">
<g id="Rectangle 4 Copy">
<use xlink:href="#path9_fill" transform="translate(-303 79.6914)" fill="#BCC6E0"/>
</g>
<g id="Rectangle 4">
<use xlink:href="#path10_fill" transform="translate(-303 77.6781)" fill="#FFFFFF"/>
</g>
</g>
<g id="Group Copy 10">
<g id="Rectangle 4 Copy">
<use xlink:href="#path9_fill" transform="translate(-268.768 59.5583)" fill="#BCC6E0"/>
</g>
<g id="Rectangle 4">
<use xlink:href="#path10_fill" transform="translate(-268.768 57.545)" fill="#FFFFFF"/>
</g>
</g>
<g id="Group Copy 11.1">
<g id="Rectangle 4 Copy">
<use xlink:href="#path7_fill" transform="translate(-234.069 40.1464)" fill="#BCC6E0"/>
</g>
<g id="Rectangle 4">
<use xlink:href="#path8_fill" transform="translate(-234.069 38.1331)" fill="#FFFFFF"/>
</g>
</g>
<g id="Group Copy 10.1">
<g id="Rectangle 4 Copy">
<use xlink:href="#path7_fill" transform="translate(-199.836 20.0133)" fill="#BCC6E0"/>
</g>
<g id="Rectangle 4">
<use xlink:href="#path8_fill" transform="translate(-199.836 18)" fill="#FFFFFF"/>
</g>
</g>
<g id="Group Copy 11.2">
<g id="Rectangle 4 Copy">
<use xlink:href="#path7_fill" transform="translate(-168.069 1.69138)" fill="#BCC6E0"/>
</g>
<g id="Rectangle 4">
<use xlink:href="#path8_fill" transform="translate(-168.069 -0.32193)" fill="#FFFFFF"/>
</g>
</g>
<g id="Group Copy 10.2">
<g id="Rectangle 4 Copy">
<use xlink:href="#path7_fill" transform="translate(-133.836 -18.4417)" fill="#BCC6E0"/>
</g>
<g id="Rectangle 4">
<use xlink:href="#path8_fill" transform="translate(-133.836 -20.455)" fill="#FFFFFF"/>
</g>
</g>
<g id="Group Copy 11.3">
<g id="Rectangle 4 Copy">
<use xlink:href="#path7_fill" transform="translate(-99.1376 -37.8536)" fill="#BCC6E0"/>
</g>
<g id="Rectangle 4">
<use xlink:href="#path8_fill" transform="translate(-99.1376 -39.8669)" fill="#FFFFFF"/>
</g>
</g>
<g id="Group Copy 10.3">
<g id="Rectangle 4 Copy">
<use xlink:href="#path7_fill" transform="translate(-64.9052 -57.9867)" fill="#BCC6E0"/>
</g>
<g id="Rectangle 4">
<use xlink:href="#path8_fill" transform="translate(-64.9052 -60)" fill="#FFFFFF"/>
</g>
</g>
</g>
<g id="Path">
<use xlink:href="#path11_fill" transform="translate(-448.234 -340.259)" fill="#EFF3F6"/>
</g>
<g id="Path 5">
<use xlink:href="#path12_fill" transform="translate(-431.012 -200.259)" fill="#FFFFFF"/>
</g>
<g id="Line">
<use xlink:href="#path13_stroke" transform="translate(-363.012 -200.259)" fill="#E8E8E8"/>
</g>
<g id="Path 2">
<use xlink:href="#path14_fill" transform="translate(-363.012 -314.259)" fill="#0066CC"/>
</g>
<g id="Line">
<use xlink:href="#path15_stroke" transform="translate(-428.012 -182.259)" fill="#F1F1F1"/>
</g>
<g id="Rectangle 2 Copy">
<use xlink:href="#path16_fill" transform="translate(-448.012 -161.259)" fill="#1D2531"/>
</g>
<g id="Path 6">
<use xlink:href="#path17_fill" transform="translate(-422.942 -191.259)" fill="#EEEEEE"/>
</g>
<g id="Path 7">
<use xlink:href="#path18_stroke" transform="translate(-424.012 -160.977)" fill="#F1F1F1"/>
</g>
<g id="Oval 2">
<use xlink:href="#path19_fill" transform="translate(-422.012 -146.259)" fill="#FF9595"/>
</g>
<g id="Oval 2">
<use xlink:href="#path20_fill" transform="translate(-350.012 -163.259)" fill="#FF9595"/>
</g>
<g id="Oval 3">
<use xlink:href="#path21_fill" transform="translate(-367.012 -171.259)" fill="#2DA1F8"/>
</g>
<g id="Path 8">
<use xlink:href="#path22_fill" transform="translate(-405.794 -159.025)" fill="#D9D9D9"/>
</g>
<g id="Path 8">
<use xlink:href="#path23_fill" transform="translate(-404.865 -161.44)" fill="#E6E6E6"/>
</g>
<g id="Path 7">
<use xlink:href="#path24_stroke" transform="translate(-421.012 -141.259)" fill="#F1F1F1"/>
</g>
<g id="Oval 2">
<use xlink:href="#path25_fill" transform="translate(-418.512 -124.759)" fill="#5ED1D2"/>
</g>
<g id="Oval 3">
<use xlink:href="#path21_fill" transform="translate(-363.012 -151.259)" fill="#3CC127"/>
</g>
<g id="Path 8">
<use xlink:href="#path26_fill" transform="translate(-402.096 -137.592)" fill="#D9D9D9"/>
</g>
<g id="Path 8">
<use xlink:href="#path27_fill" transform="translate(-401.088 -136.615)" fill="#E6E6E6"/>
</g>
<g id="Card 3">
<g id="Oval 2">
<use xlink:href="#path28_fill" transform="translate(-415.012 -103.759)" fill="#84BDFF"/>
</g>
<g id="Path 7">
<use xlink:href="#path29_stroke" transform="translate(-417.337 -119.542)" fill="#F1F1F1"/>
</g>
<g id="Oval 3">
<use xlink:href="#path21_fill" transform="translate(-359.012 -130.259)" fill="#3CC127"/>
</g>
<g id="Path 8">
<use xlink:href="#path30_fill" transform="translate(-398.428 -116.081)" fill="#D9D9D9"/>
</g>
<g id="Path 8">
<use xlink:href="#path31_fill" transform="translate(-397.49 -118.978)" fill="#E6E6E6"/>
</g>
</g>
<g id="Card 3.1">
<g id="Oval 2">
<use xlink:href="#path32_fill" transform="translate(-410.676 -82.5)" fill="#FFEB84"/>
</g>
<g id="Path 7">
<use xlink:href="#path33_stroke" transform="translate(-413 -98.2824)" fill="#F1F1F1"/>
</g>
<g id="Oval 3">
<use xlink:href="#path34_fill" transform="translate(-354.676 -109)" fill="#3CC127"/>
</g>
<g id="Path 8">
<use xlink:href="#path30_fill" transform="translate(-394.092 -94.8215)" fill="#D9D9D9"/>
</g>
<g id="Path 8">
<use xlink:href="#path31_fill" transform="translate(-393.153 -97.7185)" fill="#E6E6E6"/>
</g>
</g>
<g id="Card 3.2">
<g id="Oval 2">
<use xlink:href="#path32_fill" transform="translate(-415.012 -103.759)" fill="#84BDFF"/>
</g>
<g id="Path 7">
<use xlink:href="#path33_stroke" transform="translate(-417.337 -119.542)" fill="#F1F1F1"/>
</g>
<g id="Oval 3">
<use xlink:href="#path34_fill" transform="translate(-359.012 -130.259)" fill="#3CC127"/>
</g>
<g id="Path 8">
<use xlink:href="#path30_fill" transform="translate(-398.428 -116.081)" fill="#D9D9D9"/>
</g>
<g id="Path 8">
<use xlink:href="#path31_fill" transform="translate(-397.49 -118.978)" fill="#E6E6E6"/>
</g>
</g>
<g id="Card 3.3">
<g id="Oval 2">
<use xlink:href="#path32_fill" transform="translate(-410.676 -82.5)" fill="#FFEB84"/>
</g>
<g id="Path 7">
<use xlink:href="#path33_stroke" transform="translate(-413 -98.2824)" fill="#F1F1F1"/>
</g>
<g id="Oval 3">
<use xlink:href="#path34_fill" transform="translate(-354.676 -109)" fill="#3CC127"/>
</g>
<g id="Path 8">
<use xlink:href="#path30_fill" transform="translate(-394.092 -94.8215)" fill="#D9D9D9"/>
</g>
<g id="Path 8">
<use xlink:href="#path31_fill" transform="translate(-393.153 -97.7185)" fill="#E6E6E6"/>
</g>
</g>
<g id="Line">
<use xlink:href="#path35_stroke" transform="translate(-428.012 -182.259)" fill="#F1F1F1"/>
</g>
<g id="Path 7.1">
<use xlink:href="#path36_stroke" transform="translate(-424.012 -160.977)" fill="#F1F1F1"/>
</g>
<g id="Path 8.1">
<use xlink:href="#path22_fill" transform="translate(-405.794 -159.025)" fill="#D9D9D9"/>
</g>
<g id="Path 8.2">
<use xlink:href="#path23_fill" transform="translate(-404.865 -161.44)" fill="#E6E6E6"/>
</g>
<g id="Path 7.2">
<use xlink:href="#path37_stroke" transform="translate(-421.012 -141.259)" fill="#F1F1F1"/>
</g>
<g id="Path 8.3">
<use xlink:href="#path26_fill" transform="translate(-402.096 -137.592)" fill="#D9D9D9"/>
</g>
<g id="Path 8.4">
<use xlink:href="#path27_fill" transform="translate(-401.088 -136.615)" fill="#E6E6E6"/>
</g>
<g id="Card 3.4">
<g id="Oval 2">
<use xlink:href="#path32_fill" transform="translate(-415.012 -103.759)" fill="#84BDFF"/>
</g>
<g id="Path 7">
<use xlink:href="#path33_stroke" transform="translate(-417.337 -119.542)" fill="#F1F1F1"/>
</g>
<g id="Oval 3">
<use xlink:href="#path34_fill" transform="translate(-359.012 -130.259)" fill="#3CC127"/>
</g>
<g id="Path 8">
<use xlink:href="#path30_fill" transform="translate(-398.428 -116.081)" fill="#D9D9D9"/>
</g>
<g id="Path 8">
<use xlink:href="#path31_fill" transform="translate(-397.49 -118.978)" fill="#E6E6E6"/>
</g>
</g>
<g id="Card 3.5">
<g id="Oval 2">
<use xlink:href="#path32_fill" transform="translate(-410.676 -82.5)" fill="#FFEB84"/>
</g>
<g id="Path 7">
<use xlink:href="#path33_stroke" transform="translate(-413 -98.2824)" fill="#F1F1F1"/>
</g>
<g id="Oval 3">
<use xlink:href="#path34_fill" transform="translate(-354.676 -109)" fill="#3CC127"/>
</g>
<g id="Path 8">
<use xlink:href="#path30_fill" transform="translate(-394.092 -94.8215)" fill="#D9D9D9"/>
</g>
<g id="Path 8">
<use xlink:href="#path31_fill" transform="translate(-393.153 -97.7185)" fill="#E6E6E6"/>
</g>
</g>
<g id="Oval 2.1">
<use xlink:href="#path38_fill" transform="translate(-422.012 -146.259)" fill="#FF9595"/>
</g>
<g id="Oval 2.2">
<use xlink:href="#path39_fill" transform="translate(-418.512 -124.759)" fill="#5ED1D2"/>
</g>
<g id="Line">
<use xlink:href="#path35_stroke" transform="translate(-428.012 -182.259)" fill="#F1F1F1"/>
</g>
<g id="Path 7.3">
<use xlink:href="#path36_stroke" transform="translate(-424.012 -160.977)" fill="#F1F1F1"/>
</g>
<g id="Path 8.5">
<use xlink:href="#path22_fill" transform="translate(-405.794 -159.025)" fill="#D9D9D9"/>
</g>
<g id="Path 8.6">
<use xlink:href="#path23_fill" transform="translate(-404.865 -161.44)" fill="#E6E6E6"/>
</g>
<g id="Path 7.4">
<use xlink:href="#path37_stroke" transform="translate(-421.012 -141.259)" fill="#F1F1F1"/>
</g>
<g id="Path 8.7">
<use xlink:href="#path26_fill" transform="translate(-402.096 -137.592)" fill="#D9D9D9"/>
</g>
<g id="Path 8.8">
<use xlink:href="#path27_fill" transform="translate(-401.088 -136.615)" fill="#E6E6E6"/>
</g>
<g id="Card 3.6">
<g id="Oval 2">
<use xlink:href="#path32_fill" transform="translate(-415.012 -103.759)" fill="#84BDFF"/>
</g>
<g id="Path 7">
<use xlink:href="#path33_stroke" transform="translate(-417.337 -119.542)" fill="#F1F1F1"/>
</g>
<g id="Oval 3">
<use xlink:href="#path34_fill" transform="translate(-359.012 -130.259)" fill="#3CC127"/>
</g>
<g id="Path 8">
<use xlink:href="#path30_fill" transform="translate(-398.428 -116.081)" fill="#D9D9D9"/>
</g>
<g id="Path 8">
<use xlink:href="#path31_fill" transform="translate(-397.49 -118.978)" fill="#E6E6E6"/>
</g>
</g>
<g id="Card 3.7">
<g id="Oval 2">
<use xlink:href="#path32_fill" transform="translate(-410.676 -82.5)" fill="#FFEB84"/>
</g>
<g id="Path 7">
<use xlink:href="#path33_stroke" transform="translate(-413 -98.2824)" fill="#F1F1F1"/>
</g>
<g id="Oval 3">
<use xlink:href="#path34_fill" transform="translate(-354.676 -109)" fill="#3CC127"/>
</g>
<g id="Path 8">
<use xlink:href="#path30_fill" transform="translate(-394.092 -94.8215)" fill="#D9D9D9"/>
</g>
<g id="Path 8">
<use xlink:href="#path31_fill" transform="translate(-393.153 -97.7185)" fill="#E6E6E6"/>
</g>
</g>
<g id="Oval 2.3">
<use xlink:href="#path38_fill" transform="translate(-407 -58.8196)" fill="#FF9595"/>
</g>
<g id="Oval 2.4">
<use xlink:href="#path39_fill" transform="translate(-403.5 -37.3196)" fill="#5ED1D2"/>
</g>
<g id="Path 7.5">
<use xlink:href="#path36_stroke" transform="translate(-409 -73.5369)" fill="#F1F1F1"/>
</g>
<g id="Path 8.9">
<use xlink:href="#path22_fill" transform="translate(-390.782 -71.5859)" fill="#D9D9D9"/>
</g>
<g id="Path 8.10">
<use xlink:href="#path23_fill" transform="translate(-389.853 -74)" fill="#E6E6E6"/>
</g>
<g id="Path 7.6">
<use xlink:href="#path37_stroke" transform="translate(-406 -53.8196)" fill="#F1F1F1"/>
</g>
<g id="Path 8.11">
<use xlink:href="#path26_fill" transform="translate(-387.084 -50.1526)" fill="#D9D9D9"/>
</g>
<g id="Path 8.12">
<use xlink:href="#path27_fill" transform="translate(-386.076 -49.1757)" fill="#E6E6E6"/>
</g>
<g id="Card 3.8">
<g id="Oval 2">
<use xlink:href="#path32_fill" transform="translate(-400 -16.3196)" fill="#84BDFF"/>
</g>
<g id="Path 7">
<use xlink:href="#path33_stroke" transform="translate(-402.324 -32.102)" fill="#F1F1F1"/>
</g>
<g id="Oval 3">
<use xlink:href="#path34_fill" transform="translate(-344 -42.8196)" fill="#3CC127"/>
</g>
<g id="Path 8">
<use xlink:href="#path30_fill" transform="translate(-383.416 -28.6411)" fill="#D9D9D9"/>
</g>
<g id="Path 8">
<use xlink:href="#path31_fill" transform="translate(-382.477 -31.5381)" fill="#E6E6E6"/>
</g>
</g>
<g id="Card 3.9">
<g id="Oval 2">
<use xlink:href="#path32_fill" transform="translate(-395.663 4.93961)" fill="#FFEB84"/>
</g>
<g id="Path 7">
<use xlink:href="#path33_stroke" transform="translate(-397.988 -10.8428)" fill="#F1F1F1"/>
</g>
<g id="Oval 3">
<use xlink:href="#path34_fill" transform="translate(-339.663 -21.5604)" fill="#3CC127"/>
</g>
<g id="Path 8">
<use xlink:href="#path30_fill" transform="translate(-379.08 -7.38189)" fill="#D9D9D9"/>
</g>
<g id="Path 8">
<use xlink:href="#path31_fill" transform="translate(-378.141 -10.2789)" fill="#E6E6E6"/>
</g>
</g>
<g id="Path">
<use xlink:href="#path40_fill" transform="translate(-442.812 -148.763)" fill="#BFD0E2"/>
</g>
<g id="Path">
<use xlink:href="#path41_fill" transform="translate(-439.812 -132.164)" fill="#BFD0E2"/>
</g>
<g id="Path">
<use xlink:href="#path42_fill" transform="translate(-436.998 -115.799)" fill="#BFD0E2"/>
</g>
<g id="Path 11">
<use xlink:href="#path43_fill" transform="translate(-325.06 -108.267)" fill="#FFFFFF"/>
<use xlink:href="#path44_stroke" transform="translate(-325.06 -108.267)" fill="#E8E8E8"/>
</g>
</g>
<g id="Path 10">
<g id="Vector" filter="url(#filter0_d)">
<use xlink:href="#path45_fill" transform="translate(-342.012 -199.259)"/>
</g>
<g id="Vector">
<use xlink:href="#path45_fill" transform="translate(-342.012 -199.259)" fill="#FFFFFF"/>
</g>
</g>
<g id="Path 10">
<g id="Vector" filter="url(#filter1_d)">
<use xlink:href="#path46_fill" transform="translate(-345.3 -196.44)"/>
</g>
<g id="Vector">
<use xlink:href="#path46_fill" transform="translate(-345.3 -196.44)" fill="#FFFFFF"/>
</g>
</g>
<g id="Oval 2">
<use xlink:href="#path47_fill" transform="translate(-337 -112)" fill="#5ED1D2"/>
</g>
<g id="Path 10.1">
<g id="Vector" filter="url(#filter2_d)">
<use xlink:href="#path48_fill" transform="translate(-329 -148)"/>
</g>
<g id="Vector">
<use xlink:href="#path48_fill" transform="translate(-329 -148)" fill="#FFFFFF"/>
</g>
</g>
<g id="Path 10.2">
<g id="Vector" filter="url(#filter3_d)">
<use xlink:href="#path49_fill" transform="translate(-325 -116)"/>
</g>
<g id="Vector">
<use xlink:href="#path49_fill" transform="translate(-325 -116)" fill="#FFFFFF"/>
</g>
</g>
<g id="Oval 2.1">
<use xlink:href="#path47_fill" transform="translate(-325 -50)" fill="#835ED2"/>
</g>
<g id="Path 10.3">
<g id="Vector" filter="url(#filter4_d)">
<use xlink:href="#path48_fill" transform="translate(-317 -86)"/>
</g>
<g id="Vector">
<use xlink:href="#path48_fill" transform="translate(-317 -86)" fill="#FFFFFF"/>
</g>
</g>
<g id="Path 10.4">
<g id="Vector" filter="url(#filter5_d)">
<use xlink:href="#path49_fill" transform="translate(-313 -54)"/>
</g>
<g id="Vector">
<use xlink:href="#path49_fill" transform="translate(-313 -54)" fill="#FFFFFF"/>
</g>
</g>
</g>
</g>
</g>
</g>
</g>
<defs>
<filter id="filter0_d" filterUnits="userSpaceOnUse" x="-344" y="-201" width="65" height="46" color-interpolation-filters="sRGB">
<feFlood flood-opacity="0" result="BackgroundImageFix"/>
<feColorMatrix in="SourceAlpha" type="matrix" values="0 0 0 0 0 0 0 0 0 0 0 0 0 0 0 0 0 0 255 0"/>
<feOffset dx="0.5" dy="0.5"/>
<feGaussianBlur stdDeviation="1"/>
<feColorMatrix type="matrix" values="0 0 0 0 0 0 0 0 0 0 0 0 0 0 0 0 0 0 0.05 0"/>
<feBlend mode="normal" in2="BackgroundImageFix" result="effect1_dropShadow"/>
<feBlend mode="normal" in="SourceGraphic" in2="effect1_dropShadow" result="shape"/>
</filter>
<filter id="filter1_d" filterUnits="userSpaceOnUse" x="-347" y="-198" width="33" height="29" color-interpolation-filters="sRGB">
<feFlood flood-opacity="0" result="BackgroundImageFix"/>
<feColorMatrix in="SourceAlpha" type="matrix" values="0 0 0 0 0 0 0 0 0 0 0 0 0 0 0 0 0 0 255 0"/>
<feOffset dx="0.5" dy="0.5"/>
<feGaussianBlur stdDeviation="1"/>
<feColorMatrix type="matrix" values="0 0 0 0 0 0 0 0 0 0 0 0 0 0 0 0 0 0 0.05 0"/>
<feBlend mode="normal" in2="BackgroundImageFix" result="effect1_dropShadow"/>
<feBlend mode="normal" in="SourceGraphic" in2="effect1_dropShadow" result="shape"/>
</filter>
<filter id="filter2_d" filterUnits="userSpaceOnUse" x="-331" y="-150" width="65" height="46" color-interpolation-filters="sRGB">
<feFlood flood-opacity="0" result="BackgroundImageFix"/>
<feColorMatrix in="SourceAlpha" type="matrix" values="0 0 0 0 0 0 0 0 0 0 0 0 0 0 0 0 0 0 255 0"/>
<feOffset dx="0.5" dy="0.5"/>
<feGaussianBlur stdDeviation="1"/>
<feColorMatrix type="matrix" values="0 0 0 0 0 0 0 0 0 0 0 0 0 0 0 0 0 0 0.05 0"/>
<feBlend mode="normal" in2="BackgroundImageFix" result="effect1_dropShadow"/>
<feBlend mode="normal" in="SourceGraphic" in2="effect1_dropShadow" result="shape"/>
</filter>
<filter id="filter3_d" filterUnits="userSpaceOnUse" x="-327" y="-118" width="34" height="29" color-interpolation-filters="sRGB">
<feFlood flood-opacity="0" result="BackgroundImageFix"/>
<feColorMatrix in="SourceAlpha" type="matrix" values="0 0 0 0 0 0 0 0 0 0 0 0 0 0 0 0 0 0 255 0"/>
<feOffset dx="0.5" dy="0.5"/>
<feGaussianBlur stdDeviation="1"/>
<feColorMatrix type="matrix" values="0 0 0 0 0 0 0 0 0 0 0 0 0 0 0 0 0 0 0.05 0"/>
<feBlend mode="normal" in2="BackgroundImageFix" result="effect1_dropShadow"/>
<feBlend mode="normal" in="SourceGraphic" in2="effect1_dropShadow" result="shape"/>
</filter>
<filter id="filter4_d" filterUnits="userSpaceOnUse" x="-319" y="-88" width="65" height="46" color-interpolation-filters="sRGB">
<feFlood flood-opacity="0" result="BackgroundImageFix"/>
<feColorMatrix in="SourceAlpha" type="matrix" values="0 0 0 0 0 0 0 0 0 0 0 0 0 0 0 0 0 0 255 0"/>
<feOffset dx="0.5" dy="0.5"/>
<feGaussianBlur stdDeviation="1"/>
<feColorMatrix type="matrix" values="0 0 0 0 0 0 0 0 0 0 0 0 0 0 0 0 0 0 0.05 0"/>
<feBlend mode="normal" in2="BackgroundImageFix" result="effect1_dropShadow"/>
<feBlend mode="normal" in="SourceGraphic" in2="effect1_dropShadow" result="shape"/>
</filter>
<filter id="filter5_d" filterUnits="userSpaceOnUse" x="-315" y="-56" width="34" height="29" color-interpolation-filters="sRGB">
<feFlood flood-opacity="0" result="BackgroundImageFix"/>
<feColorMatrix in="SourceAlpha" type="matrix" values="0 0 0 0 0 0 0 0 0 0 0 0 0 0 0 0 0 0 255 0"/>
<feOffset dx="0.5" dy="0.5"/>
<feGaussianBlur stdDeviation="1"/>
<feColorMatrix type="matrix" values="0 0 0 0 0 0 0 0 0 0 0 0 0 0 0 0 0 0 0.05 0"/>
<feBlend mode="normal" in2="BackgroundImageFix" result="effect1_dropShadow"/>
<feBlend mode="normal" in="SourceGraphic" in2="effect1_dropShadow" result="shape"/>
</filter>
<path id="path0_fill" fill-rule="evenodd" d="M 0.361233 209.942C -1.42247 199.842 3.69277 192.216 9.26549 188.85L 336.265 1.27835C 341.44 -1.68993 346.367 0.687088 347.27 6.58511L 382.91 239.469C 383.17 243.909 380.386 249.316 376.661 251.567L 54.0731 454.799C 54.0731 454.799 39.9553 448.602 38.0816 437.456L 0.361233 209.942Z"/>
<path id="path1_fill" fill-rule="evenodd" d="M -6.11914e-06 197.427C -6.11914e-06 191.874 3.92203 185.045 8.7555 182.176L 341.545 0.554166C 345.69 -1.94115 356.664 4.79944 356.664 4.79944L 355.947 242.185C 355.947 247.738 352.025 254.568 347.192 257.436L 18.7128 457.096C 18.7128 457.096 7.85524 451.078 7.80999 446.909L -6.11914e-06 197.427Z"/>
<path id="path2_fill" fill-rule="evenodd" d="M 0.0222109 205.362C -0.368233 198.693 4.44534 191.437 10.0181 188.072L 334.705 1.28523C 339.874 -1.6886 344.834 0.674528 345.782 6.55578L 382.571 234.889C 382.831 239.329 380.047 244.736 376.322 246.987L 48.5295 438.863C 42.9625 442.225 38.1334 439.551 37.7426 432.876L 0.0222109 205.362Z"/>
<path id="path3_fill" fill-rule="evenodd" d="M 0.045002 176.502C -0.209958 175.029 0.645144 173.243 1.93361 172.525L 310.891 0.406907C 312.624 -0.55846 314.283 0.253244 314.597 2.21393L 346.012 198.682C 346.326 200.645 345.177 203.047 343.465 204.036L 39.4805 379.61C 37.3244 380.855 35.2318 379.872 34.8081 377.423L 0.045002 176.502Z"/>
<path id="path4_fill" fill-rule="evenodd" d="M 0.0492681 35.307C -0.218081 33.8407 0.629429 32.0693 1.94137 31.351L 58.4695 0.401016C 60.2165 -0.555506 61.9025 0.257606 62.2355 2.21805L 72.4691 62.4753C 72.6352 63.4534 72.061 64.6406 71.1946 65.1225L 15.4709 96.1174C 13.2975 97.3263 11.174 96.3236 10.7269 93.871L 0.0492681 35.307Z"/>
<path id="path5_fill" fill-rule="evenodd" d="M 0.0545702 91.6756C -0.226518 90.2071 0.606313 88.4279 1.90905 87.7046L 159.155 0.405571C 160.89 -0.557765 162.584 0.254791 162.937 2.21023L 169.087 36.2959C 169.264 37.2732 168.708 38.4642 167.836 38.962L 123.792 64.1088L 11.3915 128.283C 9.236 129.514 7.11085 128.538 6.64234 126.09L 0.0545702 91.6756Z"/>
<path id="path6_fill" fill-rule="evenodd" d="M -5.75977e-06 198.136C -5.75977e-06 192.583 3.92203 185.754 8.7555 182.885L 341.545 1.26356C 346.381 -1.60628 350.301 0.580427 350.301 6.12179L 355.947 242.895C 355.947 248.448 352.025 255.277 347.192 258.146L 16.5655 452.476C 11.73 455.346 7.80998 453.159 7.80998 447.618L -5.75977e-06 198.136Z"/>
<path id="path7_fill" fill-rule="evenodd" d="M 1.29277 14.9027C -0.425103 13.8935 -0.434423 12.2643 1.28587 11.2556L 19.1963 0.753067C 20.9104 -0.252042 23.6863 -0.252425 25.4104 0.76035L 44.9761 12.2539C 46.694 13.263 46.7033 14.8922 44.983 15.901L 27.0726 26.4035C 25.3585 27.4086 22.5826 27.409 20.8585 26.3962L 1.29277 14.9027Z"/>
<path id="path8_fill" fill-rule="evenodd" d="M 1.29277 14.9027C -0.425103 13.8935 -0.434423 12.2643 1.28587 11.2556L 19.1963 0.753067C 20.9104 -0.252042 23.6863 -0.252425 25.4104 0.76035L 44.9761 12.2539C 46.694 13.263 46.7033 14.8922 44.983 15.901L 27.0726 26.4035C 25.3585 27.4086 22.5826 27.409 20.8585 26.3962L 1.29277 14.9027Z"/>
<path id="path9_fill" fill-rule="evenodd" d="M 1.29277 14.9027C -0.425103 13.8935 -0.434423 12.2643 1.28587 11.2556L 19.1963 0.753067C 20.9104 -0.252042 23.6863 -0.252425 25.4104 0.76035L 44.9761 12.2539C 46.694 13.263 46.7033 14.8922 44.983 15.901L 27.0726 26.4035C 25.3585 27.4086 22.5826 27.409 20.8585 26.3962L 1.29277 14.9027Z"/>
<path id="path10_fill" fill-rule="evenodd" d="M 1.29277 14.9027C -0.425103 13.8935 -0.434423 12.2643 1.28587 11.2556L 19.1963 0.753067C 20.9104 -0.252042 23.6863 -0.252425 25.4104 0.76035L 44.9761 12.2539C 46.694 13.263 46.7033 14.8922 44.983 15.901L 27.0726 26.4035C 25.3585 27.4086 22.5826 27.409 20.8585 26.3962L 1.29277 14.9027Z"/>
<path id="path11_fill" fill-rule="evenodd" d="M 2.10327e-07 188.699L 36.6419 407.232L 362.006 219L 327.006 0L 2.10327e-07 188.699Z"/>
<path id="path12_fill" fill-rule="evenodd" d="M 108.061 215.82L 36.1679 257.328L 9.17314 94.4873L 0 39.152L 67.6282 0L 108.061 215.82Z"/>
<path id="path13_stroke" d="M 7.00459 37.9672L 7.49629 37.8765L 7.00459 37.9672ZM 40.3583 215.999L 0.491702 -0.0907144L -0.491702 0.0907144L 39.3749 216.181L 40.3583 215.999ZM -0.491702 0.0907144L 6.51289 38.0579L 7.49629 37.8765L 0.491702 -0.0907144L -0.491702 0.0907144ZM 6.51289 38.0579L 39.3749 216.181L 40.3583 215.999L 7.49629 37.8765L 6.51289 38.0579Z"/>
<path id="path14_fill" fill-rule="evenodd" d="M 3.12637 131.304L 80.4399 86.9688L 199.419 18.3525L 196.476 0L 0 113.259L 3.12637 131.304Z"/>
<path id="path15_stroke" d="M 67.6559 0.432538L 68.0884 0.181716L 67.5868 -0.683359L 67.1542 -0.432538L 67.6559 0.432538ZM -0.250821 38.6545L -0.683359 38.9053L -0.181716 39.7704L 0.250821 39.5196L -0.250821 38.6545ZM 67.1542 -0.432538L -0.250821 38.6545L 0.250821 39.5196L 67.6559 0.432538L 67.1542 -0.432538Z"/>
<path id="path16_fill" fill-rule="evenodd" d="M 1.38119 8.75073L 17.0119 0L 53.0514 218.386L 36.3779 228.183L 0.0373363 11.5534C -0.151257 10.4291 0.386521 9.30759 1.38119 8.75073Z"/>
<path id="path17_fill" fill-rule="evenodd" d="M 1.47266e-07 32.1967L 1.10915 37.4145L 56.6011 5.22063L 55.7824 0L 1.47266e-07 32.1967Z"/>
<path id="path18_stroke" d="M 0.251234 39.9124L 68.1847 0.432298L 67.6822 -0.432298L -0.251234 39.0478L 0.251234 39.9124Z"/>
<path id="path19_fill" fill-rule="evenodd" d="M 6.12272 15C 9.50421 15 12 11.6421 12 7.5C 12 3.35786 9.50421 0 6.12272 0C 2.74124 0 0 3.35786 0 7.5C 0 11.6421 2.74124 15 6.12272 15Z"/>
<path id="path20_fill" fill-rule="evenodd" d="M 2.55113 6.25C 3.96008 6.25 5 4.85089 5 3.125C 5 1.39911 3.96008 0 2.55113 0C 1.14218 0 0 1.39911 0 3.125C 0 4.85089 1.14218 6.25 2.55113 6.25Z"/>
<path id="path21_fill" d="M 3 7C 4.65685 7 6 5.433 6 3.5C 6 1.567 4.65685 0 3 0C 1.34315 0 0 1.567 0 3.5C 0 5.433 1.34315 7 3 7Z"/>
<path id="path22_fill" fill-rule="evenodd" d="M 8.06641e-07 10.7285L 18.6094 1.38965e-06L 19.0068 1.57579L 0.327966 12.2931L 8.06641e-07 10.7285Z"/>
<path id="path23_fill" fill-rule="evenodd" d="M -8.71143e-07 18.6533L 32.6075 -6.88672e-06L 32.8309 1.55909L 0.302421 20.1985L -8.71143e-07 18.6533Z"/>
<path id="path24_stroke" d="M 0.250785 40.471L 69.3096 0.432558L 68.8081 -0.432558L -0.250785 39.6058L 0.250785 40.471Z"/>
<path id="path25_fill" fill-rule="evenodd" d="M 6.12272 14.5C 9.50421 14.5 12 11.2541 12 7.25C 12 3.24594 9.50421 0 6.12272 0C 2.74124 0 0 3.24594 0 7.25C 0 11.2541 2.74124 14.5 6.12272 14.5Z"/>
<path id="path26_fill" fill-rule="evenodd" d="M 5.66211e-07 11.0061L 19.5256 -5.77734e-06L 19.5256 1.33532L 0.365689 12.5119L 5.66211e-07 11.0061Z"/>
<path id="path27_fill" fill-rule="evenodd" d="M 6.26709e-07 15.9373L 28.916 -1.10156e-06L 29.1318 1.41672L 0.228821 17.1507L 6.26709e-07 15.9373Z"/>
<path id="path28_fill" fill-rule="evenodd" d="M 6.12272 15C 9.50421 15 12 11.6421 12 7.5C 12 3.35786 9.50421 0 6.12272 0C 2.74124 0 0 3.35786 0 7.5C 0 11.6421 2.74124 15 6.12272 15Z"/>
<path id="path29_stroke" d="M 0.25075 40.2173L 68.8851 0.43258L 68.3836 -0.432579L -0.25075 39.3522L 0.25075 40.2173Z"/>
<path id="path30_fill" fill-rule="evenodd" d="M 3.60889e-07 10.7878L 19.7504 1.43848e-07L 19.9507 1.448L 0.25914 12.1788L 3.60889e-07 10.7878Z"/>
<path id="path31_fill" fill-rule="evenodd" d="M -4.76196e-07 19.1L 34.2245 -1.32214e-07L 34.592 1.50842L 0.541435 20.4583L -4.76196e-07 19.1Z"/>
<path id="path32_fill" fill-rule="evenodd" d="M 6.12272 15C 9.50421 15 12 11.6421 12 7.5C 12 3.35786 9.50421 0 6.12272 0C 2.74124 0 0 3.35786 0 7.5C 0 11.6421 2.74124 15 6.12272 15Z"/>
<path id="path33_stroke" d="M 0.25075 40.2173L 68.8851 0.43258L 68.3836 -0.432579L -0.25075 39.3522L 0.25075 40.2173Z"/>
<path id="path34_fill" d="M 3 7C 4.65685 7 6 5.433 6 3.5C 6 1.567 4.65685 0 3 0C 1.34315 0 0 1.567 0 3.5C 0 5.433 1.34315 7 3 7Z"/>
<path id="path35_stroke" d="M 67.6559 0.432538L 68.0884 0.181716L 67.5868 -0.683359L 67.1542 -0.432538L 67.6559 0.432538ZM -0.250821 38.6545L -0.683359 38.9053L -0.181716 39.7704L 0.250821 39.5196L -0.250821 38.6545ZM 67.1542 -0.432538L -0.250821 38.6545L 0.250821 39.5196L 67.6559 0.432538L 67.1542 -0.432538Z"/>
<path id="path36_stroke" d="M 0.251234 39.9124L 68.1847 0.432298L 67.6822 -0.432298L -0.251234 39.0478L 0.251234 39.9124Z"/>
<path id="path37_stroke" d="M 0.250785 40.4709L 69.3096 0.432558L 68.8081 -0.432558L -0.250785 39.6058L 0.250785 40.4709Z"/>
<path id="path38_fill" fill-rule="evenodd" d="M 6.12272 15C 9.50421 15 12 11.6421 12 7.5C 12 3.35786 9.50421 0 6.12272 0C 2.74124 0 0 3.35786 0 7.5C 0 11.6421 2.74124 15 6.12272 15Z"/>
<path id="path39_fill" fill-rule="evenodd" d="M 6.12272 14.5C 9.50421 14.5 12 11.2541 12 7.25C 12 3.24594 9.50421 0 6.12272 0C 2.74124 0 0 3.24594 0 7.25C 0 11.2541 2.74124 14.5 6.12272 14.5Z"/>
<path id="path40_fill" fill-rule="evenodd" d="M 7.03125e-09 5.26743L 9.77576 -2.85156e-07L 11.637 11.2183L 1.96152 16.4603L 7.03125e-09 5.26743Z"/>
<path id="path41_fill" fill-rule="evenodd" d="M 7.03125e-09 5.17264L 9.63132 5.59766e-06L 11.5788 10.8606L 2.14529 16.1887L 7.03125e-09 5.17264Z"/>
<path id="path42_fill" fill-rule="evenodd" d="M -3.00952e-07 5.3186L 9.66166 -1.11035e-06L 11.3618 11.0563L 2.00072 16.2689L -3.00952e-07 5.3186Z"/>
<path id="path43_fill" fill-rule="evenodd" d="M -4.49219e-06 110.815L 193.985 -6.10059e-06L 195.827 12.0388L 1.92211 124.132L -4.49219e-06 110.815Z"/>
<path id="path44_stroke" d="M -4.49219e-06 110.815L -0.248017 110.381L -0.543487 110.55L -0.494876 110.887L -4.49219e-06 110.815ZM 193.985 -6.10059e-06L 194.48 -0.0756023L 194.369 -0.7953L 193.737 -0.43416L 193.985 -6.10059e-06ZM 195.827 12.0388L 196.077 12.4716L 196.373 12.3007L 196.321 11.9632L 195.827 12.0388ZM 1.92211 124.132L 1.42724 124.204L 1.53278 124.935L 2.17235 124.565L 1.92211 124.132ZM 0.248008 111.249L 194.233 0.434148L 193.737 -0.43416L -0.248017 110.381L 0.248008 111.249ZM 193.491 0.0755901L 195.332 12.1144L 196.321 11.9632L 194.48 -0.0756023L 193.491 0.0755901ZM 195.576 11.6059L 1.67188 123.699L 2.17235 124.565L 196.077 12.4716L 195.576 11.6059ZM 2.41699 124.061L 0.494867 110.744L -0.494876 110.887L 1.42724 124.204L 2.41699 124.061Z"/>
<path id="path45_fill" d="M 1.00987 32.1605L 57.2139 0.131348C 57.6937 -0.142099 58.3044 0.0252119 58.5778 0.505051C 58.6339 0.603473 58.6729 0.710716 58.693 0.82219L 59.9352 7.68996C 60.0107 8.10727 59.8148 8.52682 59.4463 8.73679L 2.65559 41.0993C 2.17575 41.3727 1.5651 41.2054 1.29166 40.7255C 1.23639 40.6286 1.19775 40.523 1.17735 40.4133L 0.0338132 34.2638C -0.121908 33.4264 0.269836 32.5822 1.00987 32.1605Z"/>
<path id="path46_fill" d="M 0.994557 14.9534L 26.4706 0.135749C 26.948 -0.141925 27.5601 0.0199928 27.8378 0.497398C 27.9083 0.618543 27.9525 0.753132 27.9676 0.892463L 28.7306 7.93618C 28.773 8.32787 28.5815 8.70797 28.2415 8.90696L 2.66481 23.8738C 2.18814 24.1527 1.57561 23.9924 1.29667 23.5157C 1.23835 23.4161 1.19772 23.307 1.17661 23.1935L 0.0338106 17.0479C -0.120724 16.2169 0.263879 15.3784 0.994557 14.9534Z"/>
<path id="path47_fill" fill-rule="evenodd" d="M 2.55113 6.25C 3.96008 6.25 5 4.85089 5 3.125C 5 1.39911 3.96008 0 2.55113 0C 1.14218 0 0 1.39911 0 3.125C 0 4.85089 1.14218 6.25 2.55113 6.25Z"/>
<path id="path48_fill" d="M 1.00987 32.1605L 57.2139 0.131348C 57.6937 -0.142099 58.3044 0.0252119 58.5778 0.505051C 58.6339 0.603473 58.6729 0.710716 58.693 0.82219L 59.9352 7.68996C 60.0107 8.10727 59.8148 8.52682 59.4463 8.73679L 2.65559 41.0993C 2.17575 41.3727 1.5651 41.2054 1.29166 40.7255C 1.23639 40.6286 1.19775 40.523 1.17735 40.4133L 0.0338132 34.2638C -0.121908 33.4264 0.269836 32.5822 1.00987 32.1605Z"/>
<path id="path49_fill" d="M 0.994557 14.9534L 26.4706 0.135749C 26.948 -0.141925 27.5601 0.0199928 27.8378 0.497398C 27.9083 0.618543 27.9525 0.753132 27.9676 0.892463L 28.7306 7.93618C 28.773 8.32787 28.5815 8.70797 28.2415 8.90696L 2.66481 23.8738C 2.18814 24.1527 1.57561 23.9924 1.29667 23.5157C 1.23835 23.4161 1.19772 23.307 1.17661 23.1935L 0.0338106 17.0479C -0.120724 16.2169 0.263879 15.3784 0.994557 14.9534Z"/>
</defs>
</svg>
