<svg width="638" height="618" viewBox="0 0 638 618" version="1.1" xmlns="http://www.w3.org/2000/svg" xmlns:xlink="http://www.w3.org/1999/xlink">
<g id="Canvas" fill="none">
<g id="laptop" filter="url(#filter0_d)">
<g id="Page 1">
<g id="Landing Page Copy">
<g id="Group 3">
<g id="Group 4">
<g id="Rectangle Copy 3">
<path fill-rule="evenodd" clip-rule="evenodd" d="M 0.361233 209.942C -1.42247 199.842 3.69277 192.216 9.26549 188.85L 336.265 1.27835C 341.44 -1.68993 346.367 0.687088 347.27 6.58511L 382.91 239.469C 383.17 243.909 380.386 249.316 376.661 251.567L 54.0731 454.799C 54.0731 454.799 39.9553 448.602 38.0816 437.456L 0.361233 209.942Z" transform="translate(15 11)" fill="#CCD3E5"/>
</g>
<g id="Rectangle Copy 2">
<path fill-rule="evenodd" clip-rule="evenodd" d="M -6.11914e-06 197.427C -6.11914e-06 191.874 3.92203 185.045 8.7555 182.176L 341.545 0.554166C 345.69 -1.94115 356.664 4.79944 356.664 4.79944L 355.947 242.185C 355.947 247.738 352.025 254.568 347.192 257.436L 18.7128 457.096C 18.7128 457.096 7.85524 451.078 7.80999 446.909L -6.11914e-06 197.427Z" transform="matrix(0.48481 -0.87462 -0.87462 -0.48481 453.454 692.477)" fill="#CCD3E5"/>
</g>
<g id="Rectangle">
<path fill-rule="evenodd" clip-rule="evenodd" d="M 0.0222109 205.362C -0.368233 198.693 4.44534 191.437 10.0181 188.072L 334.705 1.28523C 339.874 -1.6886 344.834 0.674528 345.782 6.55578L 382.571 234.889C 382.831 239.329 380.047 244.736 376.322 246.987L 48.5295 438.863C 42.9625 442.225 38.1334 439.551 37.7426 432.876L 0.0222109 205.362Z" transform="translate(19.3664 13.5667)" fill="#FDFDFF"/>
</g>
<g id="Rectangle 2">
<path fill-rule="evenodd" clip-rule="evenodd" d="M 0.045002 176.502C -0.209958 175.029 0.645144 173.243 1.93361 172.525L 310.891 0.406907C 312.624 -0.55846 314.283 0.253244 314.597 2.21393L 346.012 198.682C 346.326 200.645 345.177 203.047 343.465 204.036L 39.4805 379.61C 37.3244 380.855 35.2318 379.872 34.8081 377.423L 0.045002 176.502Z" transform="translate(37.0316 46.3586)" fill="white"/>
</g>
<g id="Rectangle 2 Copy 2">
<path fill-rule="evenodd" clip-rule="evenodd" d="M 0.0492681 35.307C -0.218081 33.8407 0.629429 32.0693 1.94137 31.351L 58.4695 0.401016C 60.2165 -0.555506 61.9025 0.257606 62.2355 2.21805L 72.4691 62.4753C 72.6352 63.4534 72.061 64.6406 71.1946 65.1225L 15.4709 96.1174C 13.2975 97.3263 11.174 96.3236 10.7269 93.871L 0.0492681 35.307Z" transform="translate(139.607 154.823)" fill="#EAA137"/>
</g>
<g id="Rectangle 2 Copy 3">
<path fill-rule="evenodd" clip-rule="evenodd" d="M 0.0545702 91.6756C -0.226518 90.2071 0.606313 88.4279 1.90905 87.7046L 159.155 0.405571C 160.89 -0.557765 162.584 0.254791 162.937 2.21023L 169.087 36.2959C 169.264 37.2732 168.708 38.4642 167.836 38.962L 123.792 64.1088L 11.3915 128.283C 9.236 129.514 7.11085 128.538 6.64234 126.09L 0.0545702 91.6756Z" transform="translate(153.723 172.95)" fill="#26D2FF"/>
</g>
<g id="Rectangle Copy">
<path fill-rule="evenodd" clip-rule="evenodd" d="M -5.75977e-06 198.136C -5.75977e-06 192.583 3.92203 185.754 8.7555 182.885L 341.545 1.26356C 346.381 -1.60628 350.301 0.580427 350.301 6.12179L 355.947 242.895C 355.947 248.448 352.025 255.277 347.192 258.146L 16.5655 452.476C 11.73 455.346 7.80998 453.159 7.80998 447.618L -5.75977e-06 198.136Z" transform="matrix(0.48481 -0.87462 -0.87462 -0.48481 454.075 682.754)" fill="#EDF2FF"/>
</g>
<g id="Group Copy">
<g id="Rectangle 4 Copy">
<path fill-rule="evenodd" clip-rule="evenodd" d="M 1.29277 14.9027C -0.425103 13.8935 -0.434423 12.2643 1.28587 11.2556L 19.1963 0.753067C 20.9104 -0.252042 23.6863 -0.252425 25.4104 0.76035L 44.9761 12.2539C 46.694 13.263 46.7033 14.8922 44.983 15.901L 27.0726 26.4035C 25.3585 27.4086 22.5826 27.409 20.8585 26.3962L 1.29277 14.9027Z" transform="translate(367.232 295.146)" fill="#BCC6E0"/>
</g>
<g id="Rectangle 4">
<path fill-rule="evenodd" clip-rule="evenodd" d="M 1.29277 14.9027C -0.425103 13.8935 -0.434423 12.2643 1.28587 11.2556L 19.1963 0.753067C 20.9104 -0.252042 23.6863 -0.252425 25.4104 0.76035L 44.9761 12.2539C 46.694 13.263 46.7033 14.8922 44.983 15.901L 27.0726 26.4035C 25.3585 27.4086 22.5826 27.409 20.8585 26.3962L 1.29277 14.9027Z" transform="translate(367.232 293.133)" fill="white"/>
</g>
</g>
<g id="Group">
<g id="Rectangle 4 Copy_2">
<path fill-rule="evenodd" clip-rule="evenodd" d="M 1.29277 14.9027C -0.425103 13.8935 -0.434423 12.2643 1.28587 11.2556L 19.1963 0.753067C 20.9104 -0.252042 23.6863 -0.252425 25.4104 0.76035L 44.9761 12.2539C 46.694 13.263 46.7033 14.8922 44.983 15.901L 27.0726 26.4035C 25.3585 27.4086 22.5826 27.409 20.8585 26.3962L 1.29277 14.9027Z" transform="translate(333 315.279)" fill="#BCC6E0"/>
</g>
<g id="Rectangle 4_2">
<path fill-rule="evenodd" clip-rule="evenodd" d="M 1.29277 14.9027C -0.425103 13.8935 -0.434423 12.2643 1.28587 11.2556L 19.1963 0.753067C 20.9104 -0.252042 23.6863 -0.252425 25.4104 0.76035L 44.9761 12.2539C 46.694 13.263 46.7033 14.8922 44.983 15.901L 27.0726 26.4035C 25.3585 27.4086 22.5826 27.409 20.8585 26.3962L 1.29277 14.9027Z" transform="translate(333 313.266)" fill="white"/>
</g>
</g>
<g id="Group 2">
<g id="Group_2">
<g id="Rectangle 4 Copy_3">
<path fill-rule="evenodd" clip-rule="evenodd" d="M 1.29277 14.9027C -0.425103 13.8935 -0.434423 12.2643 1.28587 11.2556L 19.1963 0.753067C 20.9104 -0.252042 23.6863 -0.252425 25.4104 0.76035L 44.9761 12.2539C 46.694 13.263 46.7033 14.8922 44.983 15.901L 27.0726 26.4035C 25.3585 27.4086 22.5826 27.409 20.8585 26.3962L 1.29277 14.9027Z" transform="translate(123.686 435.625)" fill="#BCC6E0"/>
</g>
<g id="Rectangle 4_3">
<path fill-rule="evenodd" clip-rule="evenodd" d="M 1.29277 14.9027C -0.425103 13.8935 -0.434423 12.2643 1.28587 11.2556L 19.1963 0.753067C 20.9104 -0.252042 23.6863 -0.252425 25.4104 0.76035L 44.9761 12.2539C 46.694 13.263 46.7033 14.8922 44.983 15.901L 27.0726 26.4035C 25.3585 27.4086 22.5826 27.409 20.8585 26.3962L 1.29277 14.9027Z" transform="translate(123.686 433.612)" fill="white"/>
</g>
</g>
<g id="Group Copy_2">
<g id="Rectangle 4 Copy_4">
<path fill-rule="evenodd" clip-rule="evenodd" d="M 1.29277 14.9027C -0.425103 13.8935 -0.434423 12.2643 1.28587 11.2556L 19.1963 0.753067C 20.9104 -0.252042 23.6863 -0.252425 25.4104 0.76035L 44.9761 12.2539C 46.694 13.263 46.7033 14.8922 44.983 15.901L 27.0726 26.4035C 25.3585 27.4086 22.5826 27.409 20.8585 26.3962L 1.29277 14.9027Z" transform="translate(157.918 415.492)" fill="#BCC6E0"/>
</g>
<g id="Rectangle 4_4">
<path fill-rule="evenodd" clip-rule="evenodd" d="M 1.29277 14.9027C -0.425103 13.8935 -0.434423 12.2643 1.28587 11.2556L 19.1963 0.753067C 20.9104 -0.252042 23.6863 -0.252425 25.4104 0.76035L 44.9761 12.2539C 46.694 13.263 46.7033 14.8922 44.983 15.901L 27.0726 26.4035C 25.3585 27.4086 22.5826 27.409 20.8585 26.3962L 1.29277 14.9027Z" transform="translate(157.918 413.478)" fill="white"/>
</g>
</g>
<g id="Group Copy 2">
<g id="Rectangle 4 Copy_5">
<path fill-rule="evenodd" clip-rule="evenodd" d="M 1.29277 14.9027C -0.425103 13.8935 -0.434423 12.2643 1.28587 11.2556L 19.1963 0.753067C 20.9104 -0.252042 23.6863 -0.252425 25.4104 0.76035L 44.9761 12.2539C 46.694 13.263 46.7033 14.8922 44.983 15.901L 27.0726 26.4035C 25.3585 27.4086 22.5826 27.409 20.8585 26.3962L 1.29277 14.9027Z" transform="translate(194.165 395.359)" fill="#BCC6E0"/>
</g>
<g id="Rectangle 4_5">
<path fill-rule="evenodd" clip-rule="evenodd" d="M 1.29277 14.9027C -0.425103 13.8935 -0.434423 12.2643 1.28587 11.2556L 19.1963 0.753067C 20.9104 -0.252042 23.6863 -0.252425 25.4104 0.76035L 44.9761 12.2539C 46.694 13.263 46.7033 14.8922 44.983 15.901L 27.0726 26.4035C 25.3585 27.4086 22.5826 27.409 20.8585 26.3962L 1.29277 14.9027Z" transform="translate(194.165 393.345)" fill="white"/>
</g>
</g>
<g id="Group_3">
<g id="Rectangle 4 Copy_6">
<path fill-rule="evenodd" clip-rule="evenodd" d="M 1.29277 14.9027C -0.425103 13.8935 -0.434423 12.2643 1.28587 11.2556L 19.1963 0.753067C 20.9104 -0.252042 23.6863 -0.252425 25.4104 0.76035L 44.9761 12.2539C 46.694 13.263 46.7033 14.8922 44.983 15.901L 27.0726 26.4035C 25.3585 27.4086 22.5826 27.409 20.8585 26.3962L 1.29277 14.9027Z" transform="translate(123.686 435.625)" fill="#BCC6E0"/>
</g>
<g id="Rectangle 4_6">
<path fill-rule="evenodd" clip-rule="evenodd" d="M 1.29277 14.9027C -0.425103 13.8935 -0.434423 12.2643 1.28587 11.2556L 19.1963 0.753067C 20.9104 -0.252042 23.6863 -0.252425 25.4104 0.76035L 44.9761 12.2539C 46.694 13.263 46.7033 14.8922 44.983 15.901L 27.0726 26.4035C 25.3585 27.4086 22.5826 27.409 20.8585 26.3962L 1.29277 14.9027Z" transform="translate(123.686 433.612)" fill="white"/>
</g>
</g>
<g id="Group Copy 2.1">
<g id="Rectangle 4 Copy_7">
<path fill-rule="evenodd" clip-rule="evenodd" d="M 1.29277 14.9027C -0.425103 13.8935 -0.434423 12.2643 1.28587 11.2556L 19.1963 0.753067C 20.9104 -0.252042 23.6863 -0.252425 25.4104 0.76035L 44.9761 12.2539C 46.694 13.263 46.7033 14.8922 44.983 15.901L 27.0726 26.4035C 25.3585 27.4086 22.5826 27.409 20.8585 26.3962L 1.29277 14.9027Z" transform="translate(194.165 395.359)" fill="#BCC6E0"/>
</g>
<g id="Rectangle 4_7">
<path fill-rule="evenodd" clip-rule="evenodd" d="M 1.29277 14.9027C -0.425103 13.8935 -0.434423 12.2643 1.28587 11.2556L 19.1963 0.753067C 20.9104 -0.252042 23.6863 -0.252425 25.4104 0.76035L 44.9761 12.2539C 46.694 13.263 46.7033 14.8922 44.983 15.901L 27.0726 26.4035C 25.3585 27.4086 22.5826 27.409 20.8585 26.3962L 1.29277 14.9027Z" transform="translate(194.165 393.345)" fill="white"/>
</g>
</g>
<g id="Group Copy_3">
<g id="Rectangle 4 Copy_8">
<path fill-rule="evenodd" clip-rule="evenodd" d="M 1.29277 14.9027C -0.425103 13.8935 -0.434423 12.2643 1.28587 11.2556L 19.1963 0.753067C 20.9104 -0.252042 23.6863 -0.252425 25.4104 0.76035L 44.9761 12.2539C 46.694 13.263 46.7033 14.8922 44.983 15.901L 27.0726 26.4035C 25.3585 27.4086 22.5826 27.409 20.8585 26.3962L 1.29277 14.9027Z" transform="translate(263.232 355.146)" fill="#BCC6E0"/>
</g>
<g id="Rectangle 4_8">
<path fill-rule="evenodd" clip-rule="evenodd" d="M 1.29277 14.9027C -0.425103 13.8935 -0.434423 12.2643 1.28587 11.2556L 19.1963 0.753067C 20.9104 -0.252042 23.6863 -0.252425 25.4104 0.76035L 44.9761 12.2539C 46.694 13.263 46.7033 14.8922 44.983 15.901L 27.0726 26.4035C 25.3585 27.4086 22.5826 27.409 20.8585 26.3962L 1.29277 14.9027Z" transform="translate(263.232 353.133)" fill="white"/>
</g>
</g>
<g id="Group_4">
<g id="Rectangle 4 Copy_9">
<path fill-rule="evenodd" clip-rule="evenodd" d="M 1.29277 14.9027C -0.425103 13.8935 -0.434423 12.2643 1.28587 11.2556L 19.1963 0.753067C 20.9104 -0.252042 23.6863 -0.252425 25.4104 0.76035L 44.9761 12.2539C 46.694 13.263 46.7033 14.8922 44.983 15.901L 27.0726 26.4035C 25.3585 27.4086 22.5826 27.409 20.8585 26.3962L 1.29277 14.9027Z" transform="translate(229 375.279)" fill="#BCC6E0"/>
</g>
<g id="Rectangle 4_9">
<path fill-rule="evenodd" clip-rule="evenodd" d="M 1.29277 14.9027C -0.425103 13.8935 -0.434423 12.2643 1.28587 11.2556L 19.1963 0.753067C 20.9104 -0.252042 23.6863 -0.252425 25.4104 0.76035L 44.9761 12.2539C 46.694 13.263 46.7033 14.8922 44.983 15.901L 27.0726 26.4035C 25.3585 27.4086 22.5826 27.409 20.8585 26.3962L 1.29277 14.9027Z" transform="translate(229 373.266)" fill="white"/>
</g>
</g>
<g id="Group Copy 2.2">
<g id="Rectangle 4 Copy_10">
<path fill-rule="evenodd" clip-rule="evenodd" d="M 1.29277 14.9027C -0.425103 13.8935 -0.434423 12.2643 1.28587 11.2556L 19.1963 0.753067C 20.9104 -0.252042 23.6863 -0.252425 25.4104 0.76035L 44.9761 12.2539C 46.694 13.263 46.7033 14.8922 44.983 15.901L 27.0726 26.4035C 25.3585 27.4086 22.5826 27.409 20.8585 26.3962L 1.29277 14.9027Z" transform="translate(299.479 335.013)" fill="#BCC6E0"/>
</g>
<g id="Rectangle 4_10">
<path fill-rule="evenodd" clip-rule="evenodd" d="M 1.29277 14.9027C -0.425103 13.8935 -0.434423 12.2643 1.28587 11.2556L 19.1963 0.753067C 20.9104 -0.252042 23.6863 -0.252425 25.4104 0.76035L 44.9761 12.2539C 46.694 13.263 46.7033 14.8922 44.983 15.901L 27.0726 26.4035C 25.3585 27.4086 22.5826 27.409 20.8585 26.3962L 1.29277 14.9027Z" transform="translate(299.479 333)" fill="white"/>
</g>
</g>
<g id="Group Copy 22">
<g id="Rectangle 4 Copy_11">
<path fill-rule="evenodd" clip-rule="evenodd" d="M 1.29277 14.9027C -0.425103 13.8935 -0.434423 12.2643 1.28587 11.2556L 19.1963 0.753067C 20.9104 -0.252042 23.6863 -0.252425 25.4104 0.76035L 44.9761 12.2539C 46.694 13.263 46.7033 14.8922 44.983 15.901L 27.0726 26.4035C 25.3585 27.4086 22.5826 27.409 20.8585 26.3962L 1.29277 14.9027Z" transform="translate(201.247 476.878)" fill="#BCC6E0"/>
</g>
<g id="Rectangle 4_11">
<path fill-rule="evenodd" clip-rule="evenodd" d="M 1.29277 14.9027C -0.425103 13.8935 -0.434423 12.2643 1.28587 11.2556L 19.1963 0.753067C 20.9104 -0.252042 23.6863 -0.252425 25.4104 0.76035L 44.9761 12.2539C 46.694 13.263 46.7033 14.8922 44.983 15.901L 27.0726 26.4035C 25.3585 27.4086 22.5826 27.409 20.8585 26.3962L 1.29277 14.9027Z" transform="translate(201.247 474.864)" fill="white"/>
</g>
</g>
<g id="Group Copy 21">
<g id="Rectangle 4 Copy_12">
<path fill-rule="evenodd" clip-rule="evenodd" d="M 1.29277 14.9027C -0.425103 13.8935 -0.434423 12.2643 1.28587 11.2556L 19.1963 0.753067C 20.9104 -0.252042 23.6863 -0.252425 25.4104 0.76035L 44.9761 12.2539C 46.694 13.263 46.7033 14.8922 44.983 15.901L 27.0726 26.4035C 25.3585 27.4086 22.5826 27.409 20.8585 26.3962L 1.29277 14.9027Z" transform="translate(235.479 456.745)" fill="#BCC6E0"/>
</g>
<g id="Rectangle 4_12">
<path fill-rule="evenodd" clip-rule="evenodd" d="M 1.29277 14.9027C -0.425103 13.8935 -0.434423 12.2643 1.28587 11.2556L 19.1963 0.753067C 20.9104 -0.252042 23.6863 -0.252425 25.4104 0.76035L 44.9761 12.2539C 46.694 13.263 46.7033 14.8922 44.983 15.901L 27.0726 26.4035C 25.3585 27.4086 22.5826 27.409 20.8585 26.3962L 1.29277 14.9027Z" transform="translate(235.479 454.731)" fill="white"/>
</g>
</g>
<g id="Group Copy 21.1">
<g id="Rectangle 4 Copy_13">
<path fill-rule="evenodd" clip-rule="evenodd" d="M 1.29277 14.9027C -0.425103 13.8935 -0.434423 12.2643 1.28587 11.2556L 19.1963 0.753067C 20.9104 -0.252042 23.6863 -0.252425 25.4104 0.76035L 44.9761 12.2539C 46.694 13.263 46.7033 14.8922 44.983 15.901L 27.0726 26.4035C 25.3585 27.4086 22.5826 27.409 20.8585 26.3962L 1.29277 14.9027Z" transform="translate(272 435.013)" fill="#BCC6E0"/>
</g>
<g id="Rectangle 4_13">
<path fill-rule="evenodd" clip-rule="evenodd" d="M 1.29277 14.9027C -0.425103 13.8935 -0.434423 12.2643 1.28587 11.2556L 19.1963 0.753067C 20.9104 -0.252042 23.6863 -0.252425 25.4104 0.76035L 44.9761 12.2539C 46.694 13.263 46.7033 14.8922 44.983 15.901L 27.0726 26.4035C 25.3585 27.4086 22.5826 27.409 20.8585 26.3962L 1.29277 14.9027Z" transform="translate(272 433)" fill="white"/>
</g>
</g>
<g id="Group Copy 21.2">
<g id="Rectangle 4 Copy_14">
<path fill-rule="evenodd" clip-rule="evenodd" d="M 1.29277 14.9027C -0.425103 13.8935 -0.434423 12.2643 1.28587 11.2556L 19.1963 0.753067C 20.9104 -0.252042 23.6863 -0.252425 25.4104 0.76035L 44.9761 12.2539C 46.694 13.263 46.7033 14.8922 44.983 15.901L 27.0726 26.4035C 25.3585 27.4086 22.5826 27.409 20.8585 26.3962L 1.29277 14.9027Z" transform="translate(310 415.013)" fill="#BCC6E0"/>
</g>
<g id="Rectangle 4_14">
<path fill-rule="evenodd" clip-rule="evenodd" d="M 1.29277 14.9027C -0.425103 13.8935 -0.434423 12.2643 1.28587 11.2556L 19.1963 0.753067C 20.9104 -0.252042 23.6863 -0.252425 25.4104 0.76035L 44.9761 12.2539C 46.694 13.263 46.7033 14.8922 44.983 15.901L 27.0726 26.4035C 25.3585 27.4086 22.5826 27.409 20.8585 26.3962L 1.29277 14.9027Z" transform="translate(310 413)" fill="white"/>
</g>
</g>
<g id="Group Copy 21.3">
<g id="Rectangle 4 Copy_15">
<path fill-rule="evenodd" clip-rule="evenodd" d="M 1.29277 14.9027C -0.425103 13.8935 -0.434423 12.2643 1.28587 11.2556L 19.1963 0.753067C 20.9104 -0.252042 23.6863 -0.252425 25.4104 0.76035L 44.9761 12.2539C 46.694 13.263 46.7033 14.8922 44.983 15.901L 27.0726 26.4035C 25.3585 27.4086 22.5826 27.409 20.8585 26.3962L 1.29277 14.9027Z" transform="translate(345 395.013)" fill="#BCC6E0"/>
</g>
<g id="Rectangle 4_15">
<path fill-rule="evenodd" clip-rule="evenodd" d="M 1.29277 14.9027C -0.425103 13.8935 -0.434423 12.2643 1.28587 11.2556L 19.1963 0.753067C 20.9104 -0.252042 23.6863 -0.252425 25.4104 0.76035L 44.9761 12.2539C 46.694 13.263 46.7033 14.8922 44.983 15.901L 27.0726 26.4035C 25.3585 27.4086 22.5826 27.409 20.8585 26.3962L 1.29277 14.9027Z" transform="translate(345 393)" fill="white"/>
</g>
</g>
<g id="Group Copy 21.4">
<g id="Rectangle 4 Copy_16">
<path fill-rule="evenodd" clip-rule="evenodd" d="M 1.29277 14.9027C -0.425103 13.8935 -0.434423 12.2643 1.28587 11.2556L 19.1963 0.753067C 20.9104 -0.252042 23.6863 -0.252425 25.4104 0.76035L 44.9761 12.2539C 46.694 13.263 46.7033 14.8922 44.983 15.901L 27.0726 26.4035C 25.3585 27.4086 22.5826 27.409 20.8585 26.3962L 1.29277 14.9027Z" transform="translate(378 375.013)" fill="#BCC6E0"/>
</g>
<g id="Rectangle 4_16">
<path fill-rule="evenodd" clip-rule="evenodd" d="M 1.29277 14.9027C -0.425103 13.8935 -0.434423 12.2643 1.28587 11.2556L 19.1963 0.753067C 20.9104 -0.252042 23.6863 -0.252425 25.4104 0.76035L 44.9761 12.2539C 46.694 13.263 46.7033 14.8922 44.983 15.901L 27.0726 26.4035C 25.3585 27.4086 22.5826 27.409 20.8585 26.3962L 1.29277 14.9027Z" transform="translate(378 373)" fill="white"/>
</g>
</g>
<g id="Group Copy 21.5">
<g id="Rectangle 4 Copy_17">
<path fill-rule="evenodd" clip-rule="evenodd" d="M 1.29277 14.9027C -0.425103 13.8935 -0.434423 12.2643 1.28587 11.2556L 19.1963 0.753067C 20.9104 -0.252042 23.6863 -0.252425 25.4104 0.76035L 44.9761 12.2539C 46.694 13.263 46.7033 14.8922 44.983 15.901L 27.0726 26.4035C 25.3585 27.4086 22.5826 27.409 20.8585 26.3962L 1.29277 14.9027Z" transform="translate(411 355.013)" fill="#BCC6E0"/>
</g>
<g id="Rectangle 4_17">
<path fill-rule="evenodd" clip-rule="evenodd" d="M 1.29277 14.9027C -0.425103 13.8935 -0.434423 12.2643 1.28587 11.2556L 19.1963 0.753067C 20.9104 -0.252042 23.6863 -0.252425 25.4104 0.76035L 44.9761 12.2539C 46.694 13.263 46.7033 14.8922 44.983 15.901L 27.0726 26.4035C 25.3585 27.4086 22.5826 27.409 20.8585 26.3962L 1.29277 14.9027Z" transform="translate(411 353)" fill="white"/>
</g>
</g>
<g id="Group Copy 21.6">
<g id="Rectangle 4 Copy_18">
<path fill-rule="evenodd" clip-rule="evenodd" d="M 1.29277 14.9027C -0.425103 13.8935 -0.434423 12.2643 1.28587 11.2556L 19.1963 0.753067C 20.9104 -0.252042 23.6863 -0.252425 25.4104 0.76035L 44.9761 12.2539C 46.694 13.263 46.7033 14.8922 44.983 15.901L 27.0726 26.4035C 25.3585 27.4086 22.5826 27.409 20.8585 26.3962L 1.29277 14.9027Z" transform="translate(444 336.013)" fill="#BCC6E0"/>
</g>
<g id="Rectangle 4_18">
<path fill-rule="evenodd" clip-rule="evenodd" d="M 1.29277 14.9027C -0.425103 13.8935 -0.434423 12.2643 1.28587 11.2556L 19.1963 0.753067C 20.9104 -0.252042 23.6863 -0.252425 25.4104 0.76035L 44.9761 12.2539C 46.694 13.263 46.7033 14.8922 44.983 15.901L 27.0726 26.4035C 25.3585 27.4086 22.5826 27.409 20.8585 26.3962L 1.29277 14.9027Z" transform="translate(444 334)" fill="white"/>
</g>
</g>
<g id="Group Copy 24">
<g id="Rectangle 4 Copy_19">
<path fill-rule="evenodd" clip-rule="evenodd" d="M 1.29277 14.9027C -0.425103 13.8935 -0.434423 12.2643 1.28587 11.2556L 19.1963 0.753067C 20.9104 -0.252042 23.6863 -0.252425 25.4104 0.76035L 44.9761 12.2539C 46.694 13.263 46.7033 14.8922 44.983 15.901L 27.0726 26.4035C 25.3585 27.4086 22.5826 27.409 20.8585 26.3962L 1.29277 14.9027Z" transform="translate(228.397 506.091)" fill="#BCC6E0"/>
</g>
<g id="Rectangle 4_19">
<path fill-rule="evenodd" clip-rule="evenodd" d="M 1.29277 14.9027C -0.425103 13.8935 -0.434423 12.2643 1.28587 11.2556L 19.1963 0.753067C 20.9104 -0.252042 23.6863 -0.252425 25.4104 0.76035L 44.9761 12.2539C 46.694 13.263 46.7033 14.8922 44.983 15.901L 27.0726 26.4035C 25.3585 27.4086 22.5826 27.409 20.8585 26.3962L 1.29277 14.9027Z" transform="translate(228.397 504.077)" fill="white"/>
</g>
</g>
<g id="Group Copy 24.1">
<g id="Rectangle 4 Copy_20">
<path fill-rule="evenodd" clip-rule="evenodd" d="M 1.29277 14.9027C -0.425103 13.8935 -0.434423 12.2643 1.28587 11.2556L 19.1963 0.753067C 20.9104 -0.252042 23.6863 -0.252425 25.4104 0.76035L 44.9761 12.2539C 46.694 13.263 46.7033 14.8922 44.983 15.901L 27.0726 26.4035C 25.3585 27.4086 22.5826 27.409 20.8585 26.3962L 1.29277 14.9027Z" transform="translate(262 487.013)" fill="#BCC6E0"/>
</g>
<g id="Rectangle 4_20">
<path fill-rule="evenodd" clip-rule="evenodd" d="M 1.29277 14.9027C -0.425103 13.8935 -0.434423 12.2643 1.28587 11.2556L 19.1963 0.753067C 20.9104 -0.252042 23.6863 -0.252425 25.4104 0.76035L 44.9761 12.2539C 46.694 13.263 46.7033 14.8922 44.983 15.901L 27.0726 26.4035C 25.3585 27.4086 22.5826 27.409 20.8585 26.3962L 1.29277 14.9027Z" transform="translate(262 485)" fill="white"/>
</g>
</g>
<g id="Group Copy 24.5">
<g id="Rectangle 4 Copy_21">
<path fill-rule="evenodd" clip-rule="evenodd" d="M 1.29277 14.9027C -0.425103 13.8935 -0.434423 12.2643 1.28587 11.2556L 19.1963 0.753067C 20.9104 -0.252042 23.6863 -0.252425 25.4104 0.76035L 44.9761 12.2539C 46.694 13.263 46.7033 14.8922 44.983 15.901L 27.0726 26.4035C 25.3585 27.4086 22.5826 27.409 20.8585 26.3962L 1.29277 14.9027Z" transform="translate(294 467.013)" fill="#BCC6E0"/>
</g>
<g id="Rectangle 4_21">
<path fill-rule="evenodd" clip-rule="evenodd" d="M 1.29277 14.9027C -0.425103 13.8935 -0.434423 12.2643 1.28587 11.2556L 19.1963 0.753067C 20.9104 -0.252042 23.6863 -0.252425 25.4104 0.76035L 44.9761 12.2539C 46.694 13.263 46.7033 14.8922 44.983 15.901L 27.0726 26.4035C 25.3585 27.4086 22.5826 27.409 20.8585 26.3962L 1.29277 14.9027Z" transform="translate(294 465)" fill="white"/>
</g>
</g>
<g id="Group Copy 24.3">
<g id="Rectangle 4 Copy_22">
<path fill-rule="evenodd" clip-rule="evenodd" d="M 1.29277 14.9027C -0.425103 13.8935 -0.434423 12.2643 1.28587 11.2556L 19.1963 0.753067C 20.9104 -0.252042 23.6863 -0.252425 25.4104 0.76035L 44.9761 12.2539C 46.694 13.263 46.7033 14.8922 44.983 15.901L 27.0726 26.4035C 25.3585 27.4086 22.5826 27.409 20.8585 26.3962L 1.29277 14.9027Z" transform="translate(327 448.013)" fill="#BCC6E0"/>
</g>
<g id="Rectangle 4_22">
<path fill-rule="evenodd" clip-rule="evenodd" d="M 1.29277 14.9027C -0.425103 13.8935 -0.434423 12.2643 1.28587 11.2556L 19.1963 0.753067C 20.9104 -0.252042 23.6863 -0.252425 25.4104 0.76035L 44.9761 12.2539C 46.694 13.263 46.7033 14.8922 44.983 15.901L 27.0726 26.4035C 25.3585 27.4086 22.5826 27.409 20.8585 26.3962L 1.29277 14.9027Z" transform="translate(327 446)" fill="white"/>
</g>
</g>
<g id="Group Copy 24.4">
<g id="Rectangle 4 Copy_23">
<path fill-rule="evenodd" clip-rule="evenodd" d="M 1.29277 14.9027C -0.425103 13.8935 -0.434423 12.2643 1.28587 11.2556L 19.1963 0.753067C 20.9104 -0.252042 23.6863 -0.252425 25.4104 0.76035L 44.9761 12.2539C 46.694 13.263 46.7033 14.8922 44.983 15.901L 27.0726 26.4035C 25.3585 27.4086 22.5826 27.409 20.8585 26.3962L 1.29277 14.9027Z" transform="translate(361 428.013)" fill="#BCC6E0"/>
</g>
<g id="Rectangle 4_23">
<path fill-rule="evenodd" clip-rule="evenodd" d="M 1.29277 14.9027C -0.425103 13.8935 -0.434423 12.2643 1.28587 11.2556L 19.1963 0.753067C 20.9104 -0.252042 23.6863 -0.252425 25.4104 0.76035L 44.9761 12.2539C 46.694 13.263 46.7033 14.8922 44.983 15.901L 27.0726 26.4035C 25.3585 27.4086 22.5826 27.409 20.8585 26.3962L 1.29277 14.9027Z" transform="translate(361 426)" fill="white"/>
</g>
</g>
<g id="Group Copy 24.6">
<g id="Rectangle 4 Copy_24">
<path fill-rule="evenodd" clip-rule="evenodd" d="M 1.29277 14.9027C -0.425103 13.8935 -0.434423 12.2643 1.28587 11.2556L 19.1963 0.753067C 20.9104 -0.252042 23.6863 -0.252425 25.4104 0.76035L 44.9761 12.2539C 46.694 13.263 46.7033 14.8922 44.983 15.901L 27.0726 26.4035C 25.3585 27.4086 22.5826 27.409 20.8585 26.3962L 1.29277 14.9027Z" transform="translate(396 408.013)" fill="#BCC6E0"/>
</g>
<g id="Rectangle 4_24">
<path fill-rule="evenodd" clip-rule="evenodd" d="M 1.29277 14.9027C -0.425103 13.8935 -0.434423 12.2643 1.28587 11.2556L 19.1963 0.753067C 20.9104 -0.252042 23.6863 -0.252425 25.4104 0.76035L 44.9761 12.2539C 46.694 13.263 46.7033 14.8922 44.983 15.901L 27.0726 26.4035C 25.3585 27.4086 22.5826 27.409 20.8585 26.3962L 1.29277 14.9027Z" transform="translate(396 406)" fill="white"/>
</g>
</g>
<g id="Group Copy 24.7">
<g id="Rectangle 4 Copy_25">
<path fill-rule="evenodd" clip-rule="evenodd" d="M 1.29277 14.9027C -0.425103 13.8935 -0.434423 12.2643 1.28587 11.2556L 19.1963 0.753067C 20.9104 -0.252042 23.6863 -0.252425 25.4104 0.76035L 44.9761 12.2539C 46.694 13.263 46.7033 14.8922 44.983 15.901L 27.0726 26.4035C 25.3585 27.4086 22.5826 27.409 20.8585 26.3962L 1.29277 14.9027Z" transform="translate(429 389.013)" fill="#BCC6E0"/>
</g>
<g id="Rectangle 4_25">
<path fill-rule="evenodd" clip-rule="evenodd" d="M 1.29277 14.9027C -0.425103 13.8935 -0.434423 12.2643 1.28587 11.2556L 19.1963 0.753067C 20.9104 -0.252042 23.6863 -0.252425 25.4104 0.76035L 44.9761 12.2539C 46.694 13.263 46.7033 14.8922 44.983 15.901L 27.0726 26.4035C 25.3585 27.4086 22.5826 27.409 20.8585 26.3962L 1.29277 14.9027Z" transform="translate(429 387)" fill="white"/>
</g>
</g>
<g id="Group Copy 24.8">
<g id="Rectangle 4 Copy_26">
<path fill-rule="evenodd" clip-rule="evenodd" d="M 1.29277 14.9027C -0.425103 13.8935 -0.434423 12.2643 1.28587 11.2556L 19.1963 0.753067C 20.9104 -0.252042 23.6863 -0.252425 25.4104 0.76035L 44.9761 12.2539C 46.694 13.263 46.7033 14.8922 44.983 15.901L 27.0726 26.4035C 25.3585 27.4086 22.5826 27.409 20.8585 26.3962L 1.29277 14.9027Z" transform="translate(462 370.013)" fill="#BCC6E0"/>
</g>
<g id="Rectangle 4_26">
<path fill-rule="evenodd" clip-rule="evenodd" d="M 1.29277 14.9027C -0.425103 13.8935 -0.434423 12.2643 1.28587 11.2556L 19.1963 0.753067C 20.9104 -0.252042 23.6863 -0.252425 25.4104 0.76035L 44.9761 12.2539C 46.694 13.263 46.7033 14.8922 44.983 15.901L 27.0726 26.4035C 25.3585 27.4086 22.5826 27.409 20.8585 26.3962L 1.29277 14.9027Z" transform="translate(462 368)" fill="white"/>
</g>
</g>
<g id="Group Copy 11">
<g id="Rectangle 4 Copy_27">
<path fill-rule="evenodd" clip-rule="evenodd" d="M 1.29277 14.9027C -0.425103 13.8935 -0.434423 12.2643 1.28587 11.2556L 19.1963 0.753067C 20.9104 -0.252042 23.6863 -0.252425 25.4104 0.76035L 44.9761 12.2539C 46.694 13.263 46.7033 14.8922 44.983 15.901L 27.0726 26.4035C 25.3585 27.4086 22.5826 27.409 20.8585 26.3962L 1.29277 14.9027Z" transform="translate(176 448.691)" fill="#BCC6E0"/>
</g>
<g id="Rectangle 4_27">
<path fill-rule="evenodd" clip-rule="evenodd" d="M 1.29277 14.9027C -0.425103 13.8935 -0.434423 12.2643 1.28587 11.2556L 19.1963 0.753067C 20.9104 -0.252042 23.6863 -0.252425 25.4104 0.76035L 44.9761 12.2539C 46.694 13.263 46.7033 14.8922 44.983 15.901L 27.0726 26.4035C 25.3585 27.4086 22.5826 27.409 20.8585 26.3962L 1.29277 14.9027Z" transform="translate(176 446.678)" fill="white"/>
</g>
</g>
<g id="Group Copy 10">
<g id="Rectangle 4 Copy_28">
<path fill-rule="evenodd" clip-rule="evenodd" d="M 1.29277 14.9027C -0.425103 13.8935 -0.434423 12.2643 1.28587 11.2556L 19.1963 0.753067C 20.9104 -0.252042 23.6863 -0.252425 25.4104 0.76035L 44.9761 12.2539C 46.694 13.263 46.7033 14.8922 44.983 15.901L 27.0726 26.4035C 25.3585 27.4086 22.5826 27.409 20.8585 26.3962L 1.29277 14.9027Z" transform="translate(210.232 428.558)" fill="#BCC6E0"/>
</g>
<g id="Rectangle 4_28">
<path fill-rule="evenodd" clip-rule="evenodd" d="M 1.29277 14.9027C -0.425103 13.8935 -0.434423 12.2643 1.28587 11.2556L 19.1963 0.753067C 20.9104 -0.252042 23.6863 -0.252425 25.4104 0.76035L 44.9761 12.2539C 46.694 13.263 46.7033 14.8922 44.983 15.901L 27.0726 26.4035C 25.3585 27.4086 22.5826 27.409 20.8585 26.3962L 1.29277 14.9027Z" transform="translate(210.232 426.545)" fill="white"/>
</g>
</g>
<g id="Group Copy 11.1">
<g id="Rectangle 4 Copy_29">
<path fill-rule="evenodd" clip-rule="evenodd" d="M 1.29277 14.9027C -0.425103 13.8935 -0.434423 12.2643 1.28587 11.2556L 19.1963 0.753067C 20.9104 -0.252042 23.6863 -0.252425 25.4104 0.76035L 44.9761 12.2539C 46.694 13.263 46.7033 14.8922 44.983 15.901L 27.0726 26.4035C 25.3585 27.4086 22.5826 27.409 20.8585 26.3962L 1.29277 14.9027Z" transform="translate(244.931 409.146)" fill="#BCC6E0"/>
</g>
<g id="Rectangle 4_29">
<path fill-rule="evenodd" clip-rule="evenodd" d="M 1.29277 14.9027C -0.425103 13.8935 -0.434423 12.2643 1.28587 11.2556L 19.1963 0.753067C 20.9104 -0.252042 23.6863 -0.252425 25.4104 0.76035L 44.9761 12.2539C 46.694 13.263 46.7033 14.8922 44.983 15.901L 27.0726 26.4035C 25.3585 27.4086 22.5826 27.409 20.8585 26.3962L 1.29277 14.9027Z" transform="translate(244.931 407.133)" fill="white"/>
</g>
</g>
<g id="Group Copy 10.1">
<g id="Rectangle 4 Copy_30">
<path fill-rule="evenodd" clip-rule="evenodd" d="M 1.29277 14.9027C -0.425103 13.8935 -0.434423 12.2643 1.28587 11.2556L 19.1963 0.753067C 20.9104 -0.252042 23.6863 -0.252425 25.4104 0.76035L 44.9761 12.2539C 46.694 13.263 46.7033 14.8922 44.983 15.901L 27.0726 26.4035C 25.3585 27.4086 22.5826 27.409 20.8585 26.3962L 1.29277 14.9027Z" transform="translate(279.164 389.013)" fill="#BCC6E0"/>
</g>
<g id="Rectangle 4_30">
<path fill-rule="evenodd" clip-rule="evenodd" d="M 1.29277 14.9027C -0.425103 13.8935 -0.434423 12.2643 1.28587 11.2556L 19.1963 0.753067C 20.9104 -0.252042 23.6863 -0.252425 25.4104 0.76035L 44.9761 12.2539C 46.694 13.263 46.7033 14.8922 44.983 15.901L 27.0726 26.4035C 25.3585 27.4086 22.5826 27.409 20.8585 26.3962L 1.29277 14.9027Z" transform="translate(279.164 387)" fill="white"/>
</g>
</g>
<g id="Group Copy 11.2">
<g id="Rectangle 4 Copy_31">
<path fill-rule="evenodd" clip-rule="evenodd" d="M 1.29277 14.9027C -0.425103 13.8935 -0.434423 12.2643 1.28587 11.2556L 19.1963 0.753067C 20.9104 -0.252042 23.6863 -0.252425 25.4104 0.76035L 44.9761 12.2539C 46.694 13.263 46.7033 14.8922 44.983 15.901L 27.0726 26.4035C 25.3585 27.4086 22.5826 27.409 20.8585 26.3962L 1.29277 14.9027Z" transform="translate(310.931 370.691)" fill="#BCC6E0"/>
</g>
<g id="Rectangle 4_31">
<path fill-rule="evenodd" clip-rule="evenodd" d="M 1.29277 14.9027C -0.425103 13.8935 -0.434423 12.2643 1.28587 11.2556L 19.1963 0.753067C 20.9104 -0.252042 23.6863 -0.252425 25.4104 0.76035L 44.9761 12.2539C 46.694 13.263 46.7033 14.8922 44.983 15.901L 27.0726 26.4035C 25.3585 27.4086 22.5826 27.409 20.8585 26.3962L 1.29277 14.9027Z" transform="translate(310.931 368.678)" fill="white"/>
</g>
</g>
<g id="Group Copy 10.2">
<g id="Rectangle 4 Copy_32">
<path fill-rule="evenodd" clip-rule="evenodd" d="M 1.29277 14.9027C -0.425103 13.8935 -0.434423 12.2643 1.28587 11.2556L 19.1963 0.753067C 20.9104 -0.252042 23.6863 -0.252425 25.4104 0.76035L 44.9761 12.2539C 46.694 13.263 46.7033 14.8922 44.983 15.901L 27.0726 26.4035C 25.3585 27.4086 22.5826 27.409 20.8585 26.3962L 1.29277 14.9027Z" transform="translate(345.164 350.558)" fill="#BCC6E0"/>
</g>
<g id="Rectangle 4_32">
<path fill-rule="evenodd" clip-rule="evenodd" d="M 1.29277 14.9027C -0.425103 13.8935 -0.434423 12.2643 1.28587 11.2556L 19.1963 0.753067C 20.9104 -0.252042 23.6863 -0.252425 25.4104 0.76035L 44.9761 12.2539C 46.694 13.263 46.7033 14.8922 44.983 15.901L 27.0726 26.4035C 25.3585 27.4086 22.5826 27.409 20.8585 26.3962L 1.29277 14.9027Z" transform="translate(345.164 348.545)" fill="white"/>
</g>
</g>
<g id="Group Copy 11.3">
<g id="Rectangle 4 Copy_33">
<path fill-rule="evenodd" clip-rule="evenodd" d="M 1.29277 14.9027C -0.425103 13.8935 -0.434423 12.2643 1.28587 11.2556L 19.1963 0.753067C 20.9104 -0.252042 23.6863 -0.252425 25.4104 0.76035L 44.9761 12.2539C 46.694 13.263 46.7033 14.8922 44.983 15.901L 27.0726 26.4035C 25.3585 27.4086 22.5826 27.409 20.8585 26.3962L 1.29277 14.9027Z" transform="translate(379.862 331.146)" fill="#BCC6E0"/>
</g>
<g id="Rectangle 4_33">
<path fill-rule="evenodd" clip-rule="evenodd" d="M 1.29277 14.9027C -0.425103 13.8935 -0.434423 12.2643 1.28587 11.2556L 19.1963 0.753067C 20.9104 -0.252042 23.6863 -0.252425 25.4104 0.76035L 44.9761 12.2539C 46.694 13.263 46.7033 14.8922 44.983 15.901L 27.0726 26.4035C 25.3585 27.4086 22.5826 27.409 20.8585 26.3962L 1.29277 14.9027Z" transform="translate(379.862 329.133)" fill="white"/>
</g>
</g>
<g id="Group Copy 10.3">
<g id="Rectangle 4 Copy_34">
<path fill-rule="evenodd" clip-rule="evenodd" d="M 1.29277 14.9027C -0.425103 13.8935 -0.434423 12.2643 1.28587 11.2556L 19.1963 0.753067C 20.9104 -0.252042 23.6863 -0.252425 25.4104 0.76035L 44.9761 12.2539C 46.694 13.263 46.7033 14.8922 44.983 15.901L 27.0726 26.4035C 25.3585 27.4086 22.5826 27.409 20.8585 26.3962L 1.29277 14.9027Z" transform="translate(414.095 311.013)" fill="#BCC6E0"/>
</g>
<g id="Rectangle 4_34">
<path fill-rule="evenodd" clip-rule="evenodd" d="M 1.29277 14.9027C -0.425103 13.8935 -0.434423 12.2643 1.28587 11.2556L 19.1963 0.753067C 20.9104 -0.252042 23.6863 -0.252425 25.4104 0.76035L 44.9761 12.2539C 46.694 13.263 46.7033 14.8922 44.983 15.901L 27.0726 26.4035C 25.3585 27.4086 22.5826 27.409 20.8585 26.3962L 1.29277 14.9027Z" transform="translate(414.095 309)" fill="white"/>
</g>
</g>
</g>
<g id="Path">
<path fill-rule="evenodd" clip-rule="evenodd" d="M 2.10327e-07 188.699L 36.6419 407.232L 362.006 219L 327.006 0L 2.10327e-07 188.699Z" transform="translate(30.7664 28.7408)" fill="#EFF3F6"/>
</g>
<g id="Path 5">
<path fill-rule="evenodd" clip-rule="evenodd" d="M 108.061 215.82L 36.1679 257.328L 9.17314 94.4873L 0 39.152L 67.6282 0L 108.061 215.82Z" transform="translate(47.9878 168.741)" fill="white"/>
</g>
<g id="Line">
<path d="M 39.8666 216.09L 0 0L 7.00459 37.9672L 39.8666 216.09Z" stroke-linecap="square" transform="translate(115.988 168.741)" stroke="#E8E8E8"/>
</g>
<g id="Path 2">
<path fill-rule="evenodd" clip-rule="evenodd" d="M 3.12637 157.044L 80.4399 112.71L 244.512 19.5L 241.512 0L 0 139L 3.12637 157.044Z" transform="translate(115.988 29)" fill="#0066CC"/>
</g>
<g id="Line_2">
<path d="M 67.405 0L 0 39.0871" stroke-linecap="square" transform="translate(50.9878 186.741)" stroke="#F1F1F1"/>
</g>
<g id="Rectangle 2 Copy">
<path fill-rule="evenodd" clip-rule="evenodd" d="M 1.38119 8.75073L 17.0119 0L 53.0514 218.386L 36.3779 228.183L 0.0373363 11.5534C -0.151257 10.4291 0.386521 9.30759 1.38119 8.75073Z" transform="translate(30.9878 207.741)" fill="#1D2531"/>
</g>
<g id="Path 6">
<path fill-rule="evenodd" clip-rule="evenodd" d="M 1.47266e-07 32.1967L 1.10915 37.4145L 56.6011 5.22063L 55.7824 0L 1.47266e-07 32.1967Z" transform="translate(56.058 177.741)" fill="#EEEEEE"/>
</g>
<g id="Path 7">
<path d="M 0 39.4801L 67.9335 3.61328e-07" transform="translate(54.9878 208.023)" stroke="#F1F1F1"/>
</g>
<g id="Oval 2">
<path fill-rule="evenodd" clip-rule="evenodd" d="M 6.12272 15C 9.50421 15 12 11.6421 12 7.5C 12 3.35786 9.50421 0 6.12272 0C 2.74124 0 0 3.35786 0 7.5C 0 11.6421 2.74124 15 6.12272 15Z" transform="translate(56.9878 222.741)" fill="#FF9595"/>
</g>
<g id="Oval 2_2">
<path fill-rule="evenodd" clip-rule="evenodd" d="M 2.55113 6.25C 3.96008 6.25 5 4.85089 5 3.125C 5 1.39911 3.96008 0 2.55113 0C 1.14218 0 0 1.39911 0 3.125C 0 4.85089 1.14218 6.25 2.55113 6.25Z" transform="translate(128.988 205.741)" fill="#FF9595"/>
</g>
<g id="Oval 3">
<path d="M 3 7C 4.65685 7 6 5.433 6 3.5C 6 1.567 4.65685 0 3 0C 1.34315 0 0 1.567 0 3.5C 0 5.433 1.34315 7 3 7Z" transform="translate(111.988 197.741)" fill="#2DA1F8"/>
</g>
<g id="Path 8">
<path fill-rule="evenodd" clip-rule="evenodd" d="M 8.06641e-07 10.7285L 18.6094 1.38965e-06L 19.0068 1.57579L 0.327966 12.2931L 8.06641e-07 10.7285Z" transform="translate(73.2062 209.975)" fill="#D9D9D9"/>
</g>
<g id="Path 8_2">
<path fill-rule="evenodd" clip-rule="evenodd" d="M -8.71143e-07 18.6533L 32.6075 -6.88672e-06L 32.8309 1.55909L 0.302421 20.1985L -8.71143e-07 18.6533Z" transform="translate(74.1352 207.56)" fill="#E6E6E6"/>
</g>
<g id="Path 7_2">
<path d="M 0 40.0384L 69.0589 0" transform="translate(57.9878 227.741)" stroke="#F1F1F1"/>
</g>
<g id="Oval 2_3">
<path fill-rule="evenodd" clip-rule="evenodd" d="M 6.12272 14.5C 9.50421 14.5 12 11.2541 12 7.25C 12 3.24594 9.50421 0 6.12272 0C 2.74124 0 0 3.24594 0 7.25C 0 11.2541 2.74124 14.5 6.12272 14.5Z" transform="translate(60.4878 244.241)" fill="#5ED1D2"/>
</g>
<g id="Oval 3_2">
<path d="M 3 7C 4.65685 7 6 5.433 6 3.5C 6 1.567 4.65685 0 3 0C 1.34315 0 0 1.567 0 3.5C 0 5.433 1.34315 7 3 7Z" transform="translate(115.988 217.741)" fill="#3CC127"/>
</g>
<g id="Path 8_3">
<path fill-rule="evenodd" clip-rule="evenodd" d="M 5.66211e-07 11.0061L 19.5256 -5.77734e-06L 19.5256 1.33532L 0.365689 12.5119L 5.66211e-07 11.0061Z" transform="translate(76.9038 231.408)" fill="#D9D9D9"/>
</g>
<g id="Path 8_4">
<path fill-rule="evenodd" clip-rule="evenodd" d="M 6.26709e-07 15.9373L 28.916 -1.10156e-06L 29.1318 1.41672L 0.228821 17.1507L 6.26709e-07 15.9373Z" transform="translate(77.9122 232.385)" fill="#E6E6E6"/>
</g>
<g id="Card 3">
<g id="Oval 2_4">
<path fill-rule="evenodd" clip-rule="evenodd" d="M 6.12272 15C 9.50421 15 12 11.6421 12 7.5C 12 3.35786 9.50421 0 6.12272 0C 2.74124 0 0 3.35786 0 7.5C 0 11.6421 2.74124 15 6.12272 15Z" transform="translate(63.9878 265.241)" fill="#84BDFF"/>
</g>
<g id="Path 7_3">
<path d="M 1.43062e-08 39.7847L 68.6344 4.61426e-07" transform="translate(61.6633 249.458)" stroke="#F1F1F1"/>
</g>
<g id="Oval 3_3">
<path d="M 3 7C 4.65685 7 6 5.433 6 3.5C 6 1.567 4.65685 0 3 0C 1.34315 0 0 1.567 0 3.5C 0 5.433 1.34315 7 3 7Z" transform="translate(119.988 238.741)" fill="#3CC127"/>
</g>
<g id="Path 8_5">
<path fill-rule="evenodd" clip-rule="evenodd" d="M 3.60889e-07 10.7878L 19.7504 1.43848e-07L 19.9507 1.448L 0.25914 12.1788L 3.60889e-07 10.7878Z" transform="translate(80.5715 252.919)" fill="#D9D9D9"/>
</g>
<g id="Path 8_6">
<path fill-rule="evenodd" clip-rule="evenodd" d="M -4.76196e-07 19.1L 34.2245 -1.32214e-07L 34.592 1.50842L 0.541435 20.4583L -4.76196e-07 19.1Z" transform="translate(81.5105 250.022)" fill="#E6E6E6"/>
</g>
</g>
<g id="Card 3.1">
<g id="Oval 2_5">
<path fill-rule="evenodd" clip-rule="evenodd" d="M 6.12272 15C 9.50421 15 12 11.6421 12 7.5C 12 3.35786 9.50421 0 6.12272 0C 2.74124 0 0 3.35786 0 7.5C 0 11.6421 2.74124 15 6.12272 15Z" transform="translate(68.3245 286.5)" fill="#FFEB84"/>
</g>
<g id="Path 7_4">
<path d="M 1.43062e-08 39.7847L 68.6344 4.61426e-07" transform="translate(66 270.718)" stroke="#F1F1F1"/>
</g>
<g id="Oval 3_4">
<path d="M 3 7C 4.65685 7 6 5.433 6 3.5C 6 1.567 4.65685 0 3 0C 1.34315 0 0 1.567 0 3.5C 0 5.433 1.34315 7 3 7Z" transform="translate(124.324 260)" fill="#3CC127"/>
</g>
<g id="Path 8_7">
<path fill-rule="evenodd" clip-rule="evenodd" d="M 3.60889e-07 10.7878L 19.7504 1.43848e-07L 19.9507 1.448L 0.25914 12.1788L 3.60889e-07 10.7878Z" transform="translate(84.9082 274.179)" fill="#D9D9D9"/>
</g>
<g id="Path 8_8">
<path fill-rule="evenodd" clip-rule="evenodd" d="M -4.76196e-07 19.1L 34.2245 -1.32214e-07L 34.592 1.50842L 0.541435 20.4583L -4.76196e-07 19.1Z" transform="translate(85.8471 271.282)" fill="#E6E6E6"/>
</g>
</g>
<g id="Card 3.2">
<g id="Oval 2_6">
<path fill-rule="evenodd" clip-rule="evenodd" d="M 6.12272 15C 9.50421 15 12 11.6421 12 7.5C 12 3.35786 9.50421 0 6.12272 0C 2.74124 0 0 3.35786 0 7.5C 0 11.6421 2.74124 15 6.12272 15Z" transform="translate(63.9878 265.241)" fill="#84BDFF"/>
</g>
<g id="Path 7_5">
<path d="M 1.43062e-08 39.7847L 68.6344 4.61426e-07" transform="translate(61.6633 249.458)" stroke="#F1F1F1"/>
</g>
<g id="Oval 3_5">
<path d="M 3 7C 4.65685 7 6 5.433 6 3.5C 6 1.567 4.65685 0 3 0C 1.34315 0 0 1.567 0 3.5C 0 5.433 1.34315 7 3 7Z" transform="translate(119.988 238.741)" fill="#3CC127"/>
</g>
<g id="Path 8_9">
<path fill-rule="evenodd" clip-rule="evenodd" d="M 3.60889e-07 10.7878L 19.7504 1.43848e-07L 19.9507 1.448L 0.25914 12.1788L 3.60889e-07 10.7878Z" transform="translate(80.5715 252.919)" fill="#D9D9D9"/>
</g>
<g id="Path 8_10">
<path fill-rule="evenodd" clip-rule="evenodd" d="M -4.76196e-07 19.1L 34.2245 -1.32214e-07L 34.592 1.50842L 0.541435 20.4583L -4.76196e-07 19.1Z" transform="translate(81.5105 250.022)" fill="#E6E6E6"/>
</g>
</g>
<g id="Card 3.3">
<g id="Oval 2_7">
<path fill-rule="evenodd" clip-rule="evenodd" d="M 6.12272 15C 9.50421 15 12 11.6421 12 7.5C 12 3.35786 9.50421 0 6.12272 0C 2.74124 0 0 3.35786 0 7.5C 0 11.6421 2.74124 15 6.12272 15Z" transform="translate(68.3245 286.5)" fill="#FFEB84"/>
</g>
<g id="Path 7_6">
<path d="M 1.43062e-08 39.7847L 68.6344 4.61426e-07" transform="translate(66 270.718)" stroke="#F1F1F1"/>
</g>
<g id="Oval 3_6">
<path d="M 3 7C 4.65685 7 6 5.433 6 3.5C 6 1.567 4.65685 0 3 0C 1.34315 0 0 1.567 0 3.5C 0 5.433 1.34315 7 3 7Z" transform="translate(124.324 260)" fill="#3CC127"/>
</g>
<g id="Path 8_11">
<path fill-rule="evenodd" clip-rule="evenodd" d="M 3.60889e-07 10.7878L 19.7504 1.43848e-07L 19.9507 1.448L 0.25914 12.1788L 3.60889e-07 10.7878Z" transform="translate(84.9082 274.179)" fill="#D9D9D9"/>
</g>
<g id="Path 8_12">
<path fill-rule="evenodd" clip-rule="evenodd" d="M -4.76196e-07 19.1L 34.2245 -1.32214e-07L 34.592 1.50842L 0.541435 20.4583L -4.76196e-07 19.1Z" transform="translate(85.8471 271.282)" fill="#E6E6E6"/>
</g>
</g>
<g id="Line_3">
<path d="M 67.405 0L 0 39.0871" stroke-linecap="square" transform="translate(50.9878 186.741)" stroke="#F1F1F1"/>
</g>
<g id="Path 7.1">
<path d="M 0 39.4801L 67.9335 3.61328e-07" transform="translate(54.9878 208.023)" stroke="#F1F1F1"/>
</g>
<g id="Path 8.1">
<path fill-rule="evenodd" clip-rule="evenodd" d="M 8.06641e-07 10.7285L 18.6094 1.38965e-06L 19.0068 1.57579L 0.327966 12.2931L 8.06641e-07 10.7285Z" transform="translate(73.2062 209.975)" fill="#D9D9D9"/>
</g>
<g id="Path 8.2">
<path fill-rule="evenodd" clip-rule="evenodd" d="M -8.71143e-07 18.6533L 32.6075 -6.88672e-06L 32.8309 1.55909L 0.302421 20.1985L -8.71143e-07 18.6533Z" transform="translate(74.1352 207.56)" fill="#E6E6E6"/>
</g>
<g id="Path 7.2">
<path d="M 0 40.0384L 69.0589 0" transform="translate(57.9878 227.741)" stroke="#F1F1F1"/>
</g>
<g id="Path 8.3">
<path fill-rule="evenodd" clip-rule="evenodd" d="M 5.66211e-07 11.0061L 19.5256 -5.77734e-06L 19.5256 1.33532L 0.365689 12.5119L 5.66211e-07 11.0061Z" transform="translate(76.9038 231.408)" fill="#D9D9D9"/>
</g>
<g id="Path 8.4">
<path fill-rule="evenodd" clip-rule="evenodd" d="M 6.26709e-07 15.9373L 28.916 -1.10156e-06L 29.1318 1.41672L 0.228821 17.1507L 6.26709e-07 15.9373Z" transform="translate(77.9122 232.385)" fill="#E6E6E6"/>
</g>
<g id="Card 3.4">
<g id="Oval 2_8">
<path fill-rule="evenodd" clip-rule="evenodd" d="M 6.12272 15C 9.50421 15 12 11.6421 12 7.5C 12 3.35786 9.50421 0 6.12272 0C 2.74124 0 0 3.35786 0 7.5C 0 11.6421 2.74124 15 6.12272 15Z" transform="translate(63.9878 265.241)" fill="#84BDFF"/>
</g>
<g id="Path 7_7">
<path d="M 1.43062e-08 39.7847L 68.6344 4.61426e-07" transform="translate(61.6633 249.458)" stroke="#F1F1F1"/>
</g>
<g id="Oval 3_7">
<path d="M 3 7C 4.65685 7 6 5.433 6 3.5C 6 1.567 4.65685 0 3 0C 1.34315 0 0 1.567 0 3.5C 0 5.433 1.34315 7 3 7Z" transform="translate(119.988 238.741)" fill="#3CC127"/>
</g>
<g id="Path 8_13">
<path fill-rule="evenodd" clip-rule="evenodd" d="M 3.60889e-07 10.7878L 19.7504 1.43848e-07L 19.9507 1.448L 0.25914 12.1788L 3.60889e-07 10.7878Z" transform="translate(80.5715 252.919)" fill="#D9D9D9"/>
</g>
<g id="Path 8_14">
<path fill-rule="evenodd" clip-rule="evenodd" d="M -4.76196e-07 19.1L 34.2245 -1.32214e-07L 34.592 1.50842L 0.541435 20.4583L -4.76196e-07 19.1Z" transform="translate(81.5105 250.022)" fill="#E6E6E6"/>
</g>
</g>
<g id="Card 3.5">
<g id="Oval 2_9">
<path fill-rule="evenodd" clip-rule="evenodd" d="M 6.12272 15C 9.50421 15 12 11.6421 12 7.5C 12 3.35786 9.50421 0 6.12272 0C 2.74124 0 0 3.35786 0 7.5C 0 11.6421 2.74124 15 6.12272 15Z" transform="translate(68.3245 286.5)" fill="#FFEB84"/>
</g>
<g id="Path 7_8">
<path d="M 1.43062e-08 39.7847L 68.6344 4.61426e-07" transform="translate(66 270.718)" stroke="#F1F1F1"/>
</g>
<g id="Oval 3_8">
<path d="M 3 7C 4.65685 7 6 5.433 6 3.5C 6 1.567 4.65685 0 3 0C 1.34315 0 0 1.567 0 3.5C 0 5.433 1.34315 7 3 7Z" transform="translate(124.324 260)" fill="#3CC127"/>
</g>
<g id="Path 8_15">
<path fill-rule="evenodd" clip-rule="evenodd" d="M 3.60889e-07 10.7878L 19.7504 1.43848e-07L 19.9507 1.448L 0.25914 12.1788L 3.60889e-07 10.7878Z" transform="translate(84.9082 274.179)" fill="#D9D9D9"/>
</g>
<g id="Path 8_16">
<path fill-rule="evenodd" clip-rule="evenodd" d="M -4.76196e-07 19.1L 34.2245 -1.32214e-07L 34.592 1.50842L 0.541435 20.4583L -4.76196e-07 19.1Z" transform="translate(85.8471 271.282)" fill="#E6E6E6"/>
</g>
</g>
<g id="Oval 2.1">
<path fill-rule="evenodd" clip-rule="evenodd" d="M 6.12272 15C 9.50421 15 12 11.6421 12 7.5C 12 3.35786 9.50421 0 6.12272 0C 2.74124 0 0 3.35786 0 7.5C 0 11.6421 2.74124 15 6.12272 15Z" transform="translate(56.9878 222.741)" fill="#FF9595"/>
</g>
<g id="Oval 2.2">
<path fill-rule="evenodd" clip-rule="evenodd" d="M 6.12272 14.5C 9.50421 14.5 12 11.2541 12 7.25C 12 3.24594 9.50421 0 6.12272 0C 2.74124 0 0 3.24594 0 7.25C 0 11.2541 2.74124 14.5 6.12272 14.5Z" transform="translate(60.4878 244.241)" fill="#5ED1D2"/>
</g>
<g id="Line_4">
<path d="M 67.405 0L 0 39.0871" stroke-linecap="square" transform="translate(50.9878 186.741)" stroke="#F1F1F1"/>
</g>
<g id="Path 7.3">
<path d="M 0 39.4801L 67.9335 3.61328e-07" transform="translate(54.9878 208.023)" stroke="#F1F1F1"/>
</g>
<g id="Path 8.5">
<path fill-rule="evenodd" clip-rule="evenodd" d="M 8.06641e-07 10.7285L 18.6094 1.38965e-06L 19.0068 1.57579L 0.327966 12.2931L 8.06641e-07 10.7285Z" transform="translate(73.2062 209.975)" fill="#D9D9D9"/>
</g>
<g id="Path 8.6">
<path fill-rule="evenodd" clip-rule="evenodd" d="M -8.71143e-07 18.6533L 32.6075 -6.88672e-06L 32.8309 1.55909L 0.302421 20.1985L -8.71143e-07 18.6533Z" transform="translate(74.1352 207.56)" fill="#E6E6E6"/>
</g>
<g id="Path 7.4">
<path d="M 0 40.0384L 69.0589 0" transform="translate(57.9878 227.741)" stroke="#F1F1F1"/>
</g>
<g id="Path 8.7">
<path fill-rule="evenodd" clip-rule="evenodd" d="M 5.66211e-07 11.0061L 19.5256 -5.77734e-06L 19.5256 1.33532L 0.365689 12.5119L 5.66211e-07 11.0061Z" transform="translate(76.9038 231.408)" fill="#D9D9D9"/>
</g>
<g id="Path 8.8">
<path fill-rule="evenodd" clip-rule="evenodd" d="M 6.26709e-07 15.9373L 28.916 -1.10156e-06L 29.1318 1.41672L 0.228821 17.1507L 6.26709e-07 15.9373Z" transform="translate(77.9122 232.385)" fill="#E6E6E6"/>
</g>
<g id="Card 3.6">
<g id="Oval 2_10">
<path fill-rule="evenodd" clip-rule="evenodd" d="M 6.12272 15C 9.50421 15 12 11.6421 12 7.5C 12 3.35786 9.50421 0 6.12272 0C 2.74124 0 0 3.35786 0 7.5C 0 11.6421 2.74124 15 6.12272 15Z" transform="translate(63.9878 265.241)" fill="#84BDFF"/>
</g>
<g id="Path 7_9">
<path d="M 1.43062e-08 39.7847L 68.6344 4.61426e-07" transform="translate(61.6633 249.458)" stroke="#F1F1F1"/>
</g>
<g id="Oval 3_9">
<path d="M 3 7C 4.65685 7 6 5.433 6 3.5C 6 1.567 4.65685 0 3 0C 1.34315 0 0 1.567 0 3.5C 0 5.433 1.34315 7 3 7Z" transform="translate(119.988 238.741)" fill="#3CC127"/>
</g>
<g id="Path 8_17">
<path fill-rule="evenodd" clip-rule="evenodd" d="M 3.60889e-07 10.7878L 19.7504 1.43848e-07L 19.9507 1.448L 0.25914 12.1788L 3.60889e-07 10.7878Z" transform="translate(80.5715 252.919)" fill="#D9D9D9"/>
</g>
<g id="Path 8_18">
<path fill-rule="evenodd" clip-rule="evenodd" d="M -4.76196e-07 19.1L 34.2245 -1.32214e-07L 34.592 1.50842L 0.541435 20.4583L -4.76196e-07 19.1Z" transform="translate(81.5105 250.022)" fill="#E6E6E6"/>
</g>
</g>
<g id="Card 3.7">
<g id="Oval 2_11">
<path fill-rule="evenodd" clip-rule="evenodd" d="M 6.12272 15C 9.50421 15 12 11.6421 12 7.5C 12 3.35786 9.50421 0 6.12272 0C 2.74124 0 0 3.35786 0 7.5C 0 11.6421 2.74124 15 6.12272 15Z" transform="translate(68.3245 286.5)" fill="#FFEB84"/>
</g>
<g id="Path 7_10">
<path d="M 1.43062e-08 39.7847L 68.6344 4.61426e-07" transform="translate(66 270.718)" stroke="#F1F1F1"/>
</g>
<g id="Oval 3_10">
<path d="M 3 7C 4.65685 7 6 5.433 6 3.5C 6 1.567 4.65685 0 3 0C 1.34315 0 0 1.567 0 3.5C 0 5.433 1.34315 7 3 7Z" transform="translate(124.324 260)" fill="#3CC127"/>
</g>
<g id="Path 8_19">
<path fill-rule="evenodd" clip-rule="evenodd" d="M 3.60889e-07 10.7878L 19.7504 1.43848e-07L 19.9507 1.448L 0.25914 12.1788L 3.60889e-07 10.7878Z" transform="translate(84.9082 274.179)" fill="#D9D9D9"/>
</g>
<g id="Path 8_20">
<path fill-rule="evenodd" clip-rule="evenodd" d="M -4.76196e-07 19.1L 34.2245 -1.32214e-07L 34.592 1.50842L 0.541435 20.4583L -4.76196e-07 19.1Z" transform="translate(85.8471 271.282)" fill="#E6E6E6"/>
</g>
</g>
<g id="Oval 2.3">
<path fill-rule="evenodd" clip-rule="evenodd" d="M 6.12272 15C 9.50421 15 12 11.6421 12 7.5C 12 3.35786 9.50421 0 6.12272 0C 2.74124 0 0 3.35786 0 7.5C 0 11.6421 2.74124 15 6.12272 15Z" transform="translate(72 310.18)" fill="#FF9595"/>
</g>
<g id="Oval 2.4">
<path fill-rule="evenodd" clip-rule="evenodd" d="M 6.12272 14.5C 9.50421 14.5 12 11.2541 12 7.25C 12 3.24594 9.50421 0 6.12272 0C 2.74124 0 0 3.24594 0 7.25C 0 11.2541 2.74124 14.5 6.12272 14.5Z" transform="translate(75.5 331.68)" fill="#5ED1D2"/>
</g>
<g id="Path 7.5">
<path d="M 0 39.4801L 67.9335 3.61328e-07" transform="translate(70 295.463)" stroke="#F1F1F1"/>
</g>
<g id="Path 8.9">
<path fill-rule="evenodd" clip-rule="evenodd" d="M 8.06641e-07 10.7285L 18.6094 1.38965e-06L 19.0068 1.57579L 0.327966 12.2931L 8.06641e-07 10.7285Z" transform="translate(88.2184 297.414)" fill="#D9D9D9"/>
</g>
<g id="Path 8.10">
<path fill-rule="evenodd" clip-rule="evenodd" d="M -8.71143e-07 18.6533L 32.6075 -6.88672e-06L 32.8309 1.55909L 0.302421 20.1985L -8.71143e-07 18.6533Z" transform="translate(89.1474 295)" fill="#E6E6E6"/>
</g>
<g id="Path 7.6">
<path d="M 0 40.0384L 69.0589 0" transform="translate(73 315.18)" stroke="#F1F1F1"/>
</g>
<g id="Path 8.11">
<path fill-rule="evenodd" clip-rule="evenodd" d="M 5.66211e-07 11.0061L 19.5256 -5.77734e-06L 19.5256 1.33532L 0.365689 12.5119L 5.66211e-07 11.0061Z" transform="translate(91.916 318.847)" fill="#D9D9D9"/>
</g>
<g id="Path 8.12">
<path fill-rule="evenodd" clip-rule="evenodd" d="M 6.26709e-07 15.9373L 28.916 -1.10156e-06L 29.1318 1.41672L 0.228821 17.1507L 6.26709e-07 15.9373Z" transform="translate(92.9244 319.824)" fill="#E6E6E6"/>
</g>
<g id="Card 3.8">
<g id="Oval 2_12">
<path fill-rule="evenodd" clip-rule="evenodd" d="M 6.12272 15C 9.50421 15 12 11.6421 12 7.5C 12 3.35786 9.50421 0 6.12272 0C 2.74124 0 0 3.35786 0 7.5C 0 11.6421 2.74124 15 6.12272 15Z" transform="translate(79 352.68)" fill="#84BDFF"/>
</g>
<g id="Path 7_11">
<path d="M 1.43062e-08 39.7847L 68.6344 4.61426e-07" transform="translate(76.6755 336.898)" stroke="#F1F1F1"/>
</g>
<g id="Oval 3_11">
<path d="M 3 7C 4.65685 7 6 5.433 6 3.5C 6 1.567 4.65685 0 3 0C 1.34315 0 0 1.567 0 3.5C 0 5.433 1.34315 7 3 7Z" transform="translate(135 326.18)" fill="#3CC127"/>
</g>
<g id="Path 8_21">
<path fill-rule="evenodd" clip-rule="evenodd" d="M 3.60889e-07 10.7878L 19.7504 1.43848e-07L 19.9507 1.448L 0.25914 12.1788L 3.60889e-07 10.7878Z" transform="translate(95.5837 340.359)" fill="#D9D9D9"/>
</g>
<g id="Path 8_22">
<path fill-rule="evenodd" clip-rule="evenodd" d="M -4.76196e-07 19.1L 34.2245 -1.32214e-07L 34.592 1.50842L 0.541435 20.4583L -4.76196e-07 19.1Z" transform="translate(96.5227 337.462)" fill="#E6E6E6"/>
</g>
</g>
<g id="Card 3.9">
<g id="Oval 2_13">
<path fill-rule="evenodd" clip-rule="evenodd" d="M 6.12272 15C 9.50421 15 12 11.6421 12 7.5C 12 3.35786 9.50421 0 6.12272 0C 2.74124 0 0 3.35786 0 7.5C 0 11.6421 2.74124 15 6.12272 15Z" transform="translate(83.3367 373.94)" fill="#FFEB84"/>
</g>
<g id="Path 7_12">
<path d="M 1.43062e-08 39.7847L 68.6344 4.61426e-07" transform="translate(81.0122 358.157)" stroke="#F1F1F1"/>
</g>
<g id="Oval 3_12">
<path d="M 3 7C 4.65685 7 6 5.433 6 3.5C 6 1.567 4.65685 0 3 0C 1.34315 0 0 1.567 0 3.5C 0 5.433 1.34315 7 3 7Z" transform="translate(139.337 347.44)" fill="#3CC127"/>
</g>
<g id="Path 8_23">
<path fill-rule="evenodd" clip-rule="evenodd" d="M 3.60889e-07 10.7878L 19.7504 1.43848e-07L 19.9507 1.448L 0.25914 12.1788L 3.60889e-07 10.7878Z" transform="translate(99.9204 361.618)" fill="#D9D9D9"/>
</g>
<g id="Path 8_24">
<path fill-rule="evenodd" clip-rule="evenodd" d="M -4.76196e-07 19.1L 34.2245 -1.32214e-07L 34.592 1.50842L 0.541435 20.4583L -4.76196e-07 19.1Z" transform="translate(100.859 358.721)" fill="#E6E6E6"/>
</g>
</g>
<g id="Path_2">
<path fill-rule="evenodd" clip-rule="evenodd" d="M 7.03125e-09 5.26743L 9.77576 -2.85156e-07L 11.637 11.2183L 1.96152 16.4603L 7.03125e-09 5.26743Z" transform="translate(36.1878 220.237)" fill="#BFD0E2"/>
</g>
<g id="Path_3">
<path fill-rule="evenodd" clip-rule="evenodd" d="M 7.03125e-09 5.17264L 9.63132 5.59766e-06L 11.5788 10.8606L 2.14529 16.1887L 7.03125e-09 5.17264Z" transform="translate(39.1878 236.836)" fill="#BFD0E2"/>
</g>
<g id="Path_4">
<path fill-rule="evenodd" clip-rule="evenodd" d="M -3.00952e-07 5.3186L 9.66166 -1.11035e-06L 11.3618 11.0563L 2.00072 16.2689L -3.00952e-07 5.3186Z" transform="translate(42.0019 253.201)" fill="#BFD0E2"/>
</g>
<g id="Path 11">
<path fill-rule="evenodd" clip-rule="evenodd" d="M 0 134.048L 236.56 0L 238.56 10.5L 1.92212 147.365L 0 134.048Z" transform="translate(153.94 237.5)" fill="white"/>
<path d="M 0 134.048L 236.56 0L 238.56 10.5L 1.92212 147.365L 0 134.048Z" transform="translate(153.94 237.5)" stroke="#E8E8E8"/>
</g>
</g>
<g id="Path 10">
<g id="Vector" filter="url(#filter1_d)">
<path d="M 1.00987 32.1605L 57.2139 0.131348C 57.6937 -0.142099 58.3044 0.0252119 58.5778 0.505051C 58.6339 0.603473 58.6729 0.710716 58.693 0.82219L 59.9352 7.68996C 60.0107 8.10727 59.8148 8.52682 59.4463 8.73679L 2.65559 41.0993C 2.17575 41.3727 1.5651 41.2054 1.29166 40.7255C 1.23639 40.6286 1.19775 40.523 1.17735 40.4133L 0.0338132 34.2638C -0.121908 33.4264 0.269836 32.5822 1.00987 32.1605Z" transform="translate(136.988 169.741)" fill="black"/>
</g>
<g id="Vector_2">
<path d="M 1.00987 32.1605L 57.2139 0.131348C 57.6937 -0.142099 58.3044 0.0252119 58.5778 0.505051C 58.6339 0.603473 58.6729 0.710716 58.693 0.82219L 59.9352 7.68996C 60.0107 8.10727 59.8148 8.52682 59.4463 8.73679L 2.65559 41.0993C 2.17575 41.3727 1.5651 41.2054 1.29166 40.7255C 1.23639 40.6286 1.19775 40.523 1.17735 40.4133L 0.0338132 34.2638C -0.121908 33.4264 0.269836 32.5822 1.00987 32.1605Z" transform="translate(136.988 169.741)" fill="white"/>
</g>
</g>
<g id="Path 10_2">
<g id="Vector_3" filter="url(#filter2_d)">
<path d="M 0.994557 14.9534L 26.4706 0.135749C 26.948 -0.141925 27.5601 0.0199928 27.8378 0.497398C 27.9083 0.618543 27.9525 0.753132 27.9676 0.892463L 28.7306 7.93618C 28.773 8.32787 28.5815 8.70797 28.2415 8.90696L 2.66481 23.8738C 2.18814 24.1527 1.57561 23.9924 1.29667 23.5157C 1.23835 23.4161 1.19772 23.307 1.17661 23.1935L 0.0338106 17.0479C -0.120724 16.2169 0.263879 15.3784 0.994557 14.9534Z" transform="translate(133.7 172.56)" fill="black"/>
</g>
<g id="Vector_4">
<path d="M 0.994557 14.9534L 26.4706 0.135749C 26.948 -0.141925 27.5601 0.0199928 27.8378 0.497398C 27.9083 0.618543 27.9525 0.753132 27.9676 0.892463L 28.7306 7.93618C 28.773 8.32787 28.5815 8.70797 28.2415 8.90696L 2.66481 23.8738C 2.18814 24.1527 1.57561 23.9924 1.29667 23.5157C 1.23835 23.4161 1.19772 23.307 1.17661 23.1935L 0.0338106 17.0479C -0.120724 16.2169 0.263879 15.3784 0.994557 14.9534Z" transform="translate(133.7 172.56)" fill="white"/>
</g>
</g>
<g id="Oval 2_14">
<path fill-rule="evenodd" clip-rule="evenodd" d="M 2.55113 6.25C 3.96008 6.25 5 4.85089 5 3.125C 5 1.39911 3.96008 0 2.55113 0C 1.14218 0 0 1.39911 0 3.125C 0 4.85089 1.14218 6.25 2.55113 6.25Z" transform="translate(142 257)" fill="#5ED1D2"/>
</g>
<g id="Path 10.1">
<g id="Vector_5" filter="url(#filter3_d)">
<path d="M 1.00987 32.1605L 57.2139 0.131348C 57.6937 -0.142099 58.3044 0.0252119 58.5778 0.505051C 58.6339 0.603473 58.6729 0.710716 58.693 0.82219L 59.9352 7.68996C 60.0107 8.10727 59.8148 8.52682 59.4463 8.73679L 2.65559 41.0993C 2.17575 41.3727 1.5651 41.2054 1.29166 40.7255C 1.23639 40.6286 1.19775 40.523 1.17735 40.4133L 0.0338132 34.2638C -0.121908 33.4264 0.269836 32.5822 1.00987 32.1605Z" transform="translate(150 221)" fill="black"/>
</g>
<g id="Vector_6">
<path d="M 1.00987 32.1605L 57.2139 0.131348C 57.6937 -0.142099 58.3044 0.0252119 58.5778 0.505051C 58.6339 0.603473 58.6729 0.710716 58.693 0.82219L 59.9352 7.68996C 60.0107 8.10727 59.8148 8.52682 59.4463 8.73679L 2.65559 41.0993C 2.17575 41.3727 1.5651 41.2054 1.29166 40.7255C 1.23639 40.6286 1.19775 40.523 1.17735 40.4133L 0.0338132 34.2638C -0.121908 33.4264 0.269836 32.5822 1.00987 32.1605Z" transform="translate(150 221)" fill="white"/>
</g>
</g>
<g id="Path 10.2">
<g id="Vector_7" filter="url(#filter4_d)">
<path d="M 0.994557 14.9534L 26.4706 0.135749C 26.948 -0.141925 27.5601 0.0199928 27.8378 0.497398C 27.9083 0.618543 27.9525 0.753132 27.9676 0.892463L 28.7306 7.93618C 28.773 8.32787 28.5815 8.70797 28.2415 8.90696L 2.66481 23.8738C 2.18814 24.1527 1.57561 23.9924 1.29667 23.5157C 1.23835 23.4161 1.19772 23.307 1.17661 23.1935L 0.0338106 17.0479C -0.120724 16.2169 0.263879 15.3784 0.994557 14.9534Z" transform="translate(154 253)" fill="black"/>
</g>
<g id="Vector_8">
<path d="M 0.994557 14.9534L 26.4706 0.135749C 26.948 -0.141925 27.5601 0.0199928 27.8378 0.497398C 27.9083 0.618543 27.9525 0.753132 27.9676 0.892463L 28.7306 7.93618C 28.773 8.32787 28.5815 8.70797 28.2415 8.90696L 2.66481 23.8738C 2.18814 24.1527 1.57561 23.9924 1.29667 23.5157C 1.23835 23.4161 1.19772 23.307 1.17661 23.1935L 0.0338106 17.0479C -0.120724 16.2169 0.263879 15.3784 0.994557 14.9534Z" transform="translate(154 253)" fill="white"/>
</g>
</g>
<g id="Oval 2.1_2">
<path fill-rule="evenodd" clip-rule="evenodd" d="M 2.55113 6.25C 3.96008 6.25 5 4.85089 5 3.125C 5 1.39911 3.96008 0 2.55113 0C 1.14218 0 0 1.39911 0 3.125C 0 4.85089 1.14218 6.25 2.55113 6.25Z" transform="translate(154 319)" fill="#835ED2"/>
</g>
<g id="Path 10.3">
<g id="Vector_9" filter="url(#filter5_d)">
<path d="M 1.00987 32.1605L 57.2139 0.131348C 57.6937 -0.142099 58.3044 0.0252119 58.5778 0.505051C 58.6339 0.603473 58.6729 0.710716 58.693 0.82219L 59.9352 7.68996C 60.0107 8.10727 59.8148 8.52682 59.4463 8.73679L 2.65559 41.0993C 2.17575 41.3727 1.5651 41.2054 1.29166 40.7255C 1.23639 40.6286 1.19775 40.523 1.17735 40.4133L 0.0338132 34.2638C -0.121908 33.4264 0.269836 32.5822 1.00987 32.1605Z" transform="translate(162 283)" fill="black"/>
</g>
<g id="Vector_10">
<path d="M 1.00987 32.1605L 57.2139 0.131348C 57.6937 -0.142099 58.3044 0.0252119 58.5778 0.505051C 58.6339 0.603473 58.6729 0.710716 58.693 0.82219L 59.9352 7.68996C 60.0107 8.10727 59.8148 8.52682 59.4463 8.73679L 2.65559 41.0993C 2.17575 41.3727 1.5651 41.2054 1.29166 40.7255C 1.23639 40.6286 1.19775 40.523 1.17735 40.4133L 0.0338132 34.2638C -0.121908 33.4264 0.269836 32.5822 1.00987 32.1605Z" transform="translate(162 283)" fill="white"/>
</g>
</g>
<g id="Path 10.4">
<g id="Vector_11" filter="url(#filter6_d)">
<path d="M 0.994557 14.9534L 26.4706 0.135749C 26.948 -0.141925 27.5601 0.0199928 27.8378 0.497398C 27.9083 0.618543 27.9525 0.753132 27.9676 0.892463L 28.7306 7.93618C 28.773 8.32787 28.5815 8.70797 28.2415 8.90696L 2.66481 23.8738C 2.18814 24.1527 1.57561 23.9924 1.29667 23.5157C 1.23835 23.4161 1.19772 23.307 1.17661 23.1935L 0.0338106 17.0479C -0.120724 16.2169 0.263879 15.3784 0.994557 14.9534Z" transform="translate(166 315)" fill="black"/>
</g>
<g id="Vector_12">
<path d="M 0.994557 14.9534L 26.4706 0.135749C 26.948 -0.141925 27.5601 0.0199928 27.8378 0.497398C 27.9083 0.618543 27.9525 0.753132 27.9676 0.892463L 28.7306 7.93618C 28.773 8.32787 28.5815 8.70797 28.2415 8.90696L 2.66481 23.8738C 2.18814 24.1527 1.57561 23.9924 1.29667 23.5157C 1.23835 23.4161 1.19772 23.307 1.17661 23.1935L 0.0338106 17.0479C -0.120724 16.2169 0.263879 15.3784 0.994557 14.9534Z" transform="translate(166 315)" fill="white"/>
</g>
</g>
</g>
</g>
</g>
</g>
</g>
<defs>
<filter id="filter0_d" x="0" y="0" width="637.197" height="617.706" filterUnits="userSpaceOnUse" color-interpolation-filters="sRGB">
<feFlood flood-opacity="0" result="BackgroundImageFix"/>
<feColorMatrix in="SourceAlpha" type="matrix" values="0 0 0 0 0 0 0 0 0 0 0 0 0 0 0 0 0 0 255 0"/>
<feOffset dy="4"/>
<feGaussianBlur stdDeviation="7.5"/>
<feColorMatrix type="matrix" values="0 0 0 0 0 0 0 0 0 0 0 0 0 0 0 0 0 0 0.25 0"/>
<feBlend mode="normal" in2="BackgroundImageFix" result="effect1_dropShadow"/>
<feBlend mode="normal" in="SourceGraphic" in2="effect1_dropShadow" result="shape"/>
</filter>
<filter id="filter1_d" x="135.488" y="168.241" width="63.9513" height="45.2306" filterUnits="userSpaceOnUse" color-interpolation-filters="sRGB">
<feFlood flood-opacity="0" result="BackgroundImageFix"/>
<feColorMatrix in="SourceAlpha" type="matrix" values="0 0 0 0 0 0 0 0 0 0 0 0 0 0 0 0 0 0 255 0"/>
<feOffset dx="0.5" dy="0.5"/>
<feGaussianBlur stdDeviation="1"/>
<feColorMatrix type="matrix" values="0 0 0 0 0 0 0 0 0 0 0 0 0 0 0 0 0 0 0.05 0"/>
<feBlend mode="normal" in2="BackgroundImageFix" result="effect1_dropShadow"/>
<feBlend mode="normal" in="SourceGraphic" in2="effect1_dropShadow" result="shape"/>
</filter>
<filter id="filter2_d" x="132.2" y="171.06" width="32.7364" height="28.0108" filterUnits="userSpaceOnUse" color-interpolation-filters="sRGB">
<feFlood flood-opacity="0" result="BackgroundImageFix"/>
<feColorMatrix in="SourceAlpha" type="matrix" values="0 0 0 0 0 0 0 0 0 0 0 0 0 0 0 0 0 0 255 0"/>
<feOffset dx="0.5" dy="0.5"/>
<feGaussianBlur stdDeviation="1"/>
<feColorMatrix type="matrix" values="0 0 0 0 0 0 0 0 0 0 0 0 0 0 0 0 0 0 0.05 0"/>
<feBlend mode="normal" in2="BackgroundImageFix" result="effect1_dropShadow"/>
<feBlend mode="normal" in="SourceGraphic" in2="effect1_dropShadow" result="shape"/>
</filter>
<filter id="filter3_d" x="148.5" y="219.5" width="63.9513" height="45.2306" filterUnits="userSpaceOnUse" color-interpolation-filters="sRGB">
<feFlood flood-opacity="0" result="BackgroundImageFix"/>
<feColorMatrix in="SourceAlpha" type="matrix" values="0 0 0 0 0 0 0 0 0 0 0 0 0 0 0 0 0 0 255 0"/>
<feOffset dx="0.5" dy="0.5"/>
<feGaussianBlur stdDeviation="1"/>
<feColorMatrix type="matrix" values="0 0 0 0 0 0 0 0 0 0 0 0 0 0 0 0 0 0 0.05 0"/>
<feBlend mode="normal" in2="BackgroundImageFix" result="effect1_dropShadow"/>
<feBlend mode="normal" in="SourceGraphic" in2="effect1_dropShadow" result="shape"/>
</filter>
<filter id="filter4_d" x="152.5" y="251.5" width="32.7364" height="28.0108" filterUnits="userSpaceOnUse" color-interpolation-filters="sRGB">
<feFlood flood-opacity="0" result="BackgroundImageFix"/>
<feColorMatrix in="SourceAlpha" type="matrix" values="0 0 0 0 0 0 0 0 0 0 0 0 0 0 0 0 0 0 255 0"/>
<feOffset dx="0.5" dy="0.5"/>
<feGaussianBlur stdDeviation="1"/>
<feColorMatrix type="matrix" values="0 0 0 0 0 0 0 0 0 0 0 0 0 0 0 0 0 0 0.05 0"/>
<feBlend mode="normal" in2="BackgroundImageFix" result="effect1_dropShadow"/>
<feBlend mode="normal" in="SourceGraphic" in2="effect1_dropShadow" result="shape"/>
</filter>
<filter id="filter5_d" x="160.5" y="281.5" width="63.9513" height="45.2306" filterUnits="userSpaceOnUse" color-interpolation-filters="sRGB">
<feFlood flood-opacity="0" result="BackgroundImageFix"/>
<feColorMatrix in="SourceAlpha" type="matrix" values="0 0 0 0 0 0 0 0 0 0 0 0 0 0 0 0 0 0 255 0"/>
<feOffset dx="0.5" dy="0.5"/>
<feGaussianBlur stdDeviation="1"/>
<feColorMatrix type="matrix" values="0 0 0 0 0 0 0 0 0 0 0 0 0 0 0 0 0 0 0.05 0"/>
<feBlend mode="normal" in2="BackgroundImageFix" result="effect1_dropShadow"/>
<feBlend mode="normal" in="SourceGraphic" in2="effect1_dropShadow" result="shape"/>
</filter>
<filter id="filter6_d" x="164.5" y="313.5" width="32.7364" height="28.0108" filterUnits="userSpaceOnUse" color-interpolation-filters="sRGB">
<feFlood flood-opacity="0" result="BackgroundImageFix"/>
<feColorMatrix in="SourceAlpha" type="matrix" values="0 0 0 0 0 0 0 0 0 0 0 0 0 0 0 0 0 0 255 0"/>
<feOffset dx="0.5" dy="0.5"/>
<feGaussianBlur stdDeviation="1"/>
<feColorMatrix type="matrix" values="0 0 0 0 0 0 0 0 0 0 0 0 0 0 0 0 0 0 0.05 0"/>
<feBlend mode="normal" in2="BackgroundImageFix" result="effect1_dropShadow"/>
<feBlend mode="normal" in="SourceGraphic" in2="effect1_dropShadow" result="shape"/>
</filter>

</defs>
</svg>

