<svg xmlns="http://www.w3.org/2000/svg" width="72" height="72" viewBox="0 0 72 72"><path fill="#9cdbff" d="M0 0h72v72H0z"/><path d="M47.64 45.86a2.47 2.47 0 0 1-1.28.24l-4-.35a.7.7 0 0 1-.34-.12.72.72 0 0 1-.21-1L54 34.76V20a3 3 0 0 0-3-3H20a3 3 0 0 0-3 3v31a3 3 0 0 0 3 3h31a3 3 0 0 0 3-3v-8.25z" fill="#7795f8"/><rect x="22" y="23" width="27" height="5" rx="1" ry="1" fill="#9cdbff"/><rect x="22" y="43" width="27" height="5" rx="1" ry="1" fill="#fff"/><rect x="22" y="33" width="12" height="5" rx="1" ry="1" fill="#9cdbff"/><rect x="37" y="33" width="12" height="5" rx="1" ry="1" fill="#9cdbff"/><path d="M47 44.36L58.1 33.2a3 3 0 0 0 0-4.31 3 3 0 0 0-4.31 0L42.65 40.05a2.29 2.29 0 0 0-.65 1.13l-1 3.93a.72.72 0 0 0 .53.88.69.69 0 0 0 .35 0l3.91-1a2.47 2.47 0 0 0 1.21-.63z" fill="#555abf"/></svg>