<svg xmlns="http://www.w3.org/2000/svg" width="48" height="48" viewBox="0 0 48 48">
  <g id="Artboard-2" fill="none" fill-rule="evenodd">
    <path id="2" fill="#FFC7EE" fill-rule="nonzero" d="M37,43 L11,43 C9.34314575,43 8,41.6568542 8,40 L8,7 C8,5.34314575 9.34314575,4 11,4 L37,4 C38.6568542,4 40,5.34314575 40,7 L40,40 C40,41.6568542 38.6568542,43 37,43 Z M18.5,40 L31.5,40 C32.3284271,40 33,39.3284271 33,38.5 C33,37.6715729 32.3284271,37 31.5,37 L18.5,37 C17.6715729,37 17,37.6715729 17,38.5 C17,39.3284271 17.6715729,40 18.5,40 Z M25,20.5 C25,19.6715729 24.3284271,19 23.5,19 L17.5,19 C16.6715729,19 16,19.6715729 16,20.5 C16,21.3284271 16.6715729,22 17.5,22 L23.5,22 C24.3284271,22 25,21.3284271 25,20.5 Z M12.5,28 L21.5,28 C22.3284271,28 23,27.3284271 23,26.5 C23,25.6715729 22.3284271,25 21.5,25 L12.5,25 C11.6715729,25 11,25.6715729 11,26.5 C11,27.3284271 11.6715729,28 12.5,28 Z M23.5,7 L12.5,7 C11.6715729,7 11,7.67157288 11,8.5 C11,9.32842712 11.6715729,10 12.5,10 L23.5,10 C24.3284271,10 25,9.32842712 25,8.5 C25,7.67157288 24.3284271,7 23.5,7 Z M35.5,13 L22.5,13 C21.6715729,13 21,13.6715729 21,14.5 C21,15.3284271 21.6715729,16 22.5,16 L35.5,16 C36.3284271,16 37,15.3284271 37,14.5 C37,13.6715729 36.3284271,13 35.5,13 Z M35.5,25 L27.5,25 C26.6715729,25 26,25.6715729 26,26.5 C26,27.3284271 26.6715729,28 27.5,28 L35.5,28 C36.3284271,28 37,27.3284271 37,26.5 C37,25.6715729 36.3284271,25 35.5,25 Z"></path>
    <path id="1" fill="#D782D9" fill-rule="nonzero" d="M47.66,33.366 L43.506,37.65 C43.2890532,37.8767863 42.9888438,38.0050541 42.675,38.0050541 C42.3611562,38.0050541 42.0609468,37.8767863 41.844,37.65 C41.3862197,37.1707525 41.3862197,36.4162475 41.844,35.937 L43.722,34 L23.5,34 C22.6715729,34 22,33.3284271 22,32.5 C22,31.6715729 22.6715729,31 23.5,31 L43.704,31 L41.844,29.082 C41.3862197,28.6027525 41.3862197,27.8482475 41.844,27.369 C42.0605372,27.1418217 42.3605151,27.0130116 42.6743591,27.0124451 C42.9882031,27.0118786 43.2886441,27.1396049 43.506,27.366 L47.661,31.651 C48.121,32.124 48.121,32.891 47.661,33.364 L47.66,33.366 Z M16.5,16 L4.296,16 L6.156,17.918 C6.61378028,18.3972475 6.61378028,19.1517525 6.156,19.631 C5.93905318,19.8577863 5.63884379,19.9860541 5.325,19.9860541 C5.01115621,19.9860541 4.71094682,19.8577863 4.494,19.631 L0.34,15.35 C-0.118417437,14.8706211 -0.118417437,14.1153789 0.34,13.636 L4.494,9.352 C4.71094682,9.12521375 5.01115621,8.99694591 5.325,8.99694591 C5.63884379,8.99694591 5.93905318,9.12521375 6.156,9.352 C6.61378028,9.83124747 6.61378028,10.5857525 6.156,11.065 L4.278,13 L16.5,13 C17.3284271,13 18,13.6715729 18,14.5 C18,15.3284271 17.3284271,16 16.5,16 Z"></path>
  </g>
</svg>