<svg width="64" height="64" viewBox="0 0 64 64" fill="none" xmlns="http://www.w3.org/2000/svg">
<path d="M11.1325 3.94542C10.1353 0.951362 6.93378 -0.676982 3.94218 0.268508C0.950586 1.26653 -0.676423 4.47069 0.268292 7.46474L15.0163 52.8483C16.0135 55.6322 19.0576 57.208 21.9442 56.3676C24.9883 55.4746 26.8253 52.2705 25.8281 49.329C25.8281 49.2239 11.1325 3.94542 11.1325 3.94542Z" transform="translate(30.3459)" fill="#ECB32D"/>
<path d="M11.1325 3.94541C10.1353 0.951362 6.93378 -0.676983 3.94218 0.268507C0.950582 1.26652 -0.676427 4.47069 0.268288 7.46474L15.0163 52.8483C16.0135 55.6322 19.0576 57.208 21.9442 56.3676C24.9883 55.4746 26.8253 52.2705 25.8281 49.329C25.8281 49.2239 11.1325 3.94541 11.1325 3.94541Z" transform="translate(7.5153 7.40634)" fill="#63C1A0"/>
<path d="M52.6575 11.1417C55.6491 10.1436 57.2762 6.93947 56.3314 3.94541C55.3342 0.95136 52.1327 -0.676985 49.1411 0.268506L3.74231 15.0812C0.960646 16.0792 -0.613877 19.1258 0.22587 22.0148C1.1181 25.0614 4.31963 26.8998 7.25874 25.9018C7.36371 25.9018 52.6575 11.1417 52.6575 11.1417Z" transform="translate(7.40027 30.3607)" fill="#E01A59"/>
<path d="M3.51644 14.3925C6.45555 13.447 10.2869 12.1863 14.3807 10.8731C13.4359 7.93161 12.1763 4.09712 10.8642 -1.603e-06L1.60169e-06 3.51932L3.51644 14.3925Z" transform="translate(17.0733 39.9791)" fill="#331433"/>
<path d="M3.51644 14.3925C7.61021 13.0793 11.4416 11.8186 14.3807 10.8731C13.4359 7.93161 12.1763 4.09713 10.8642 0L-3.20338e-06 3.51932L3.51644 14.3925Z" transform="translate(39.9564 32.5202)" fill="#D62027"/>
<path d="M52.6051 11.1416C55.5967 10.1436 57.2237 6.93947 56.279 3.94542C55.2818 0.951364 52.0802 -0.676981 49.0886 0.26851L3.74231 15.0287C0.960647 16.0267 -0.61388 19.0733 0.225867 21.9623C1.1181 25.0088 4.31963 26.8473 7.25875 25.8493C7.36371 25.8493 52.6051 11.1416 52.6051 11.1416Z" transform="translate(0 7.5114)" fill="#89D3DF"/>
<path d="M3.51644 14.3925C6.45555 13.447 10.2869 12.1863 14.3807 10.8731C13.0686 6.77602 11.8089 2.94152 10.8642 -8.01502e-07L-1.60169e-06 3.51933L3.51644 14.3925Z" transform="translate(9.67302 17.0772)" fill="#258B74"/>
<path d="M3.51644 14.3925C7.6102 13.0793 11.4416 11.8186 14.3807 10.8731C13.0686 6.77601 11.8089 2.94153 10.8642 0L-1.60169e-06 3.51932L3.51644 14.3925Z" transform="translate(32.5036 9.67088)" fill="#819C3C"/>
</svg>
