<svg xmlns="http://www.w3.org/2000/svg" width="72" height="72" viewBox="0 0 72 72">
  <g fill="none">
    <circle cx="36" cy="36" r="36" fill="#D6FACF"></circle>
    <g transform="translate(20 14)">
      <path fill="#24B47E" d="M21.0161523,37.1568922 L20,38.5714286 L19.1103395,38.5714286 L20.5416667,36.5789474 L21.0161523,37.1568922 Z M11.5911523,36.9378446 L10.25,38.5714286 L9.69753086,38.5714286 L11.3333333,36.5789474 L11.5911523,36.9378446 Z M5.375,3.28571429 L5.375,1.7593985 C5.375,0.984636922 6.32639491,2.67643051e-16 7,0 L31.375,0 C32.0486051,0 33,0.984636922 33,1.7593985 L33,35.0526316 L30.3012747,37.9745597 C30.1241879,38.1662928 29.910796,38.3163537 29.6763802,38.4180545 L29.75,38.3383459 L29.75,5.04511278 C29.75,4.27035121 28.7986051,3.28571429 28.125,3.28571429 L5.375,3.28571429 Z"></path>
      <path fill="#3ECF8E" d="M23.5625,44 C23.0481357,44 22.5608222,43.7695729 22.2344396,43.3720241 L18.4166667,38.7218045 L15.0990364,43.3401169 C14.8014434,43.7543817 14.3225754,44 13.8125,44 C13.3024246,44 12.8235566,43.7543817 12.5259636,43.3401169 L9.20833333,38.7218045 L5.39056043,43.3720241 C5.06417779,43.7695729 4.57686433,44 4.0625,44 C3.54455013,44 3.05015011,43.7836212 2.69872529,43.4031311 L0,40.481203 L0,7.18796992 C0,6.41320835 0.951394907,5.42857143 1.625,5.42857143 L26,5.42857143 C26.6736051,5.42857143 27.625,6.41320835 27.625,7.18796992 L27.625,40.481203 L24.9262747,43.4031311 C24.5748499,43.7836212 24.0804499,44 23.5625,44 Z"></path>
    </g>
    <rect width="18" height="2" x="25" y="29" fill="#D6FACF" rx="1"></rect>
    <rect width="18" height="2" x="25" y="33.04" fill="#D6FACF" rx="1"></rect>
    <rect width="18" height="2" x="25" y="37" fill="#D6FACF" rx="1"></rect>
    <rect width="18" height="2" x="25" y="41" fill="#D6FACF" rx="1"></rect>
  </g>
</svg>