<svg width="16" height="20" viewBox="0 0 16 20" version="1.1" xmlns="http://www.w3.org/2000/svg" xmlns:xlink="http://www.w3.org/1999/xlink">
<title>timer</title>
<desc>Created using Figma</desc>
<g id="Canvas" transform="translate(387 -68)">
<g id="timer">
<g id="Vector">
<use xlink:href="#path0_fill" transform="translate(-387 68)" fill="#FFFFFF"/>
</g>
</g>
</g>
<defs>
<path id="path0_fill" d="M 14.3254 7.1C 15.4058 8.49531 15.9946 10.2087 16 11.9734C 16.0054 13.7381 15.4271 15.4551 14.3553 16.857C 13.2834 18.2589 11.7781 19.2671 10.0737 19.7245C 8.36927 20.1819 6.56145 20.063 4.93169 19.3861C 3.30193 18.7093 1.9417 17.5126 1.0628 15.9823C 0.183889 14.452 -0.164368 12.6741 0.0722502 10.9253C 0.308868 9.17649 1.11708 7.55501 2.37105 6.31332C 3.62501 5.07163 5.25436 4.27941 7.00538 4.06L 7.00538 2L 9.00538 2L 9.00538 4.06C 10.4654 4.24 11.8054 4.82 12.9054 5.68L 14.3654 4.22L 15.7854 5.64L 14.3254 7.09L 14.3254 7.1ZM 8.00538 18C 9.59668 18 11.1228 17.3679 12.248 16.2426C 13.3732 15.1174 14.0054 13.5913 14.0054 12C 14.0054 10.4087 13.3732 8.88258 12.248 7.75736C 11.1228 6.63214 9.59668 6 8.00538 6C 6.41408 6 4.88796 6.63214 3.76274 7.75736C 2.63752 8.88258 2.00538 10.4087 2.00538 12C 2.00538 13.5913 2.63752 15.1174 3.76274 16.2426C 4.88796 17.3679 6.41408 18 8.00538 18L 8.00538 18ZM 5.00538 0L 11.0054 0L 11.0054 2L 5.00538 2L 5.00538 0ZM 10.1254 8.46L 11.5454 9.88L 8.00538 13.4L 6.59538 12L 10.1254 8.46L 10.1254 8.46Z"/>
</defs>
</svg>
